# Kenney (www.kenney.nl), CC0 - converted for IngeTrazo
mtllib bush.mtl
v 0.15994 -0.34136 0.59042
v -0.00000 -0.58717 0.73800
v -0.15994 -0.34136 0.59042
v 0.12948 -0.27228 0.12165
v 0.05331 -0.05331 0.00000
v -0.12948 -0.27228 0.12165
v -0.05331 -0.05331 0.00000
v -0.34136 0.15994 0.72003
v -0.34136 -0.15994 0.72003
v -0.58717 0.00000 0.90000
v 0.05331 0.05331 0.00000
v -0.05331 0.05331 0.00000
v 0.22087 0.15164 0.39898
v -0.22087 0.15164 0.39898
v 0.49578 0.15994 0.28001
v 0.75232 0.03212 0.21233
v 0.49578 -0.15994 0.28001
v -0.15164 0.22087 0.48187
v -0.15164 -0.22087 0.48187
v -0.22087 -0.15164 0.39514
v 0.22087 -0.15164 0.39514
v 0.22087 0.27455 0.29166
v -0.22087 0.27455 0.29166
v -0.03212 0.75232 0.30842
v 0.15994 0.49578 0.40674
v -0.15994 0.49578 0.40674
v 0.27228 -0.12948 0.08456
v 0.50860 0.05764 0.02727
v 0.27228 0.12948 0.08456
v 0.27455 0.22087 0.20078
v 0.27455 -0.22087 0.20078
v -0.27455 0.22087 0.35225
v -0.27455 -0.22087 0.35225
v -0.49578 0.15994 0.49125
v -0.49578 -0.15994 0.49125
v 0.15994 0.34136 0.59616
v -0.15994 0.34136 0.59616
v 0.15994 -0.49578 0.40282
v 0.03212 -0.75232 0.30545
v -0.15994 -0.49578 0.40282
v -0.00000 0.58717 0.74518
v 0.34136 0.15994 0.41041
v 0.58717 0.00000 0.51300
v 0.34136 -0.15994 0.41041
v 0.12948 0.27228 0.12283
v -0.05764 0.50860 0.03961
v -0.12948 0.27228 0.12283
v 0.22087 -0.27455 0.28885
v -0.22087 -0.27455 0.28885
v 0.15164 0.22087 0.27467
v 0.15164 -0.22087 0.27467
v 0.05764 -0.50860 0.03923
v -0.27228 -0.12948 0.14835
v -0.27228 0.12948 0.14835
v -0.50860 -0.05764 0.04784
v -0.75232 -0.03212 0.37250
usemtl m0
f 3 2 1
f 1 2 3
f 6 5 4
f 5 6 7
f 4 5 6
f 7 6 5
f 10 9 8
f 8 9 10
f 13 12 11
f 12 13 14
f 11 12 13
f 14 13 12
f 17 16 15
f 15 16 17
f 8 19 18
f 19 8 9
f 18 19 8
f 9 8 19
f 3 21 20
f 21 3 1
f 20 21 3
f 1 3 21
f 22 12 11
f 12 22 23
f 11 12 22
f 23 22 12
f 26 25 24
f 24 25 26
f 29 28 27
f 27 28 29
f 25 23 22
f 23 25 26
f 22 23 25
f 26 25 23
f 30 17 15
f 17 30 31
f 15 17 30
f 31 30 17
f 34 33 32
f 33 34 35
f 32 33 34
f 35 34 33
f 36 14 13
f 14 36 37
f 13 14 36
f 37 36 14
f 40 39 38
f 38 39 40
f 20 5 7
f 5 20 21
f 7 5 20
f 21 20 5
f 37 36 41
f 41 36 37
f 44 43 42
f 42 43 44
f 47 46 45
f 45 46 47
f 49 38 48
f 38 49 40
f 48 38 49
f 40 49 38
f 11 31 30
f 31 11 5
f 30 31 11
f 5 11 31
f 50 44 42
f 44 50 51
f 42 44 50
f 51 50 44
f 11 51 50
f 51 11 5
f 50 51 11
f 5 11 51
f 11 47 45
f 47 11 12
f 45 47 11
f 12 11 47
f 49 5 7
f 5 49 48
f 7 5 49
f 48 49 5
f 33 12 32
f 12 33 7
f 32 12 33
f 7 33 12
f 6 4 52
f 52 4 6
f 53 12 7
f 12 53 54
f 7 12 53
f 54 53 12
f 55 54 53
f 53 54 55
f 56 35 34
f 34 35 56
f 19 12 18
f 12 19 7
f 18 12 19
f 7 19 12
f 5 29 27
f 29 5 11
f 27 29 5
f 11 5 29
