# Kenney (www.kenney.nl), CC0 - converted for IngeTrazo
mtllib car.mtl
v -0.60392 -0.92314 0.87591
v -0.86275 -0.92314 0.87591
v -0.60392 -0.81593 0.83460
v -0.86275 -0.81593 0.83460
v -1.03529 -0.74196 0.51765
v -0.86275 -0.66431 0.51765
v -1.03529 -0.75695 0.63153
v -0.86275 -0.68195 0.65162
v -0.86275 -1.54799 0.15162
v -1.03529 -1.49309 0.20652
v -0.86275 -1.63026 0.25882
v -1.03529 -1.56301 0.29765
v -1.03529 -0.80091 0.73765
v -0.86275 -0.73367 0.77647
v -1.03529 -0.87083 0.80703
v -0.60392 -1.54799 0.15162
v -0.60392 -1.63026 0.25882
v -0.60392 -1.68197 0.38367
v -0.86275 -1.68197 0.38367
v -0.60392 -1.69961 0.51765
v -0.86275 -1.69961 0.51765
v -1.03529 -0.96196 0.84214
v -0.86275 -0.92314 0.06935
v -0.86275 -0.81593 0.15162
v -1.03529 -0.96196 0.13660
v -1.03529 -0.87083 0.20652
v -0.86275 -1.44078 0.06935
v -1.03529 -1.40196 0.13660
v -0.86275 -1.44078 0.87591
v -1.03529 -1.40196 0.84214
v -0.86275 -1.31594 0.90188
v -1.03529 -1.29584 0.86421
v -0.86275 -1.54799 0.83460
v -1.03529 -1.49309 0.80703
v -1.03529 -1.60697 0.40377
v -0.60392 -1.68197 0.65162
v -0.86275 -1.68197 0.65162
v -0.60392 -1.63026 0.77647
v -0.86275 -1.63026 0.77647
v -0.86275 -1.04798 0.90188
v -1.03529 -1.06808 0.86421
v -0.60392 -0.81593 0.15162
v -0.86275 -0.73367 0.25882
v -0.60392 -0.73367 0.25882
v -0.60392 -1.54799 0.83460
v -0.60392 -1.31594 0.01764
v -0.60392 -1.18196 0.00000
v -0.86275 -1.31594 0.01764
v -0.86275 -1.18196 0.00000
v -0.60392 -1.18196 0.91073
v -0.86275 -1.18196 0.91073
v -0.60392 -1.04798 0.90188
v -0.86275 -0.68195 0.38367
v -0.60392 -0.68195 0.38367
v -1.03529 -1.62196 0.51765
v -0.60392 -0.92314 0.06935
v -0.60392 -1.04798 0.01764
v -0.86275 -1.04798 0.01764
v -1.03529 -1.56301 0.73765
v -0.60392 -1.44078 0.06935
v -1.03529 -1.18196 0.87174
v -1.03529 -1.60697 0.63153
v -0.60392 -0.73367 0.77647
v -0.60392 -1.44078 0.87591
v -0.60392 -0.66431 0.51765
v -0.60392 -0.68195 0.65162
v -1.03529 -1.06808 0.09264
v -1.03529 -0.80091 0.29765
v -0.43137 -1.06808 0.86421
v -0.43137 -0.96196 0.84214
v -1.03529 -1.29584 0.09264
v -1.03529 -0.75695 0.40377
v -1.03529 -1.18196 0.07765
v -0.60392 -1.31594 0.90188
v -0.43137 -1.49309 0.80703
v -0.43137 -1.40196 0.84214
v -0.43137 -1.40196 0.13660
v -0.43137 -1.29584 0.09264
v -0.43137 -1.29584 0.86421
v -0.43137 -1.18196 0.87174
v -0.43137 -0.75695 0.63153
v -0.43137 -0.80091 0.73765
v -0.43137 -1.62196 0.51765
v -0.43137 -1.60697 0.63153
v -0.43137 -1.56301 0.29765
v -0.43137 -1.60697 0.40377
v -0.43137 -1.56301 0.73765
v -0.43137 -1.49309 0.20652
v -0.43137 -1.18196 0.07765
v -0.43137 -0.87083 0.80703
v -0.43137 -0.87083 0.20652
v -0.43137 -0.80091 0.29765
v -0.43137 -0.75695 0.40377
v -0.43137 -0.74196 0.51765
v -0.43137 -1.06808 0.09264
v -0.43137 -0.96196 0.13660
v -1.03529 -0.86901 0.51765
v -1.03529 -0.87968 0.43665
v -1.03529 -0.87968 0.59864
v -1.03529 -0.91094 0.36117
v -1.03529 -0.96067 0.29636
v -1.03529 -1.02549 0.24663
v -1.03529 -1.10096 0.21536
v -1.03529 -1.18196 0.20470
v -1.03529 -0.91094 0.67412
v -1.03529 -0.96067 0.73894
v -1.03529 -1.02549 0.78689
v -1.03529 -1.10096 0.80259
v -1.03529 -1.26296 0.21536
v -1.03529 -1.33844 0.24663
v -1.03529 -1.40325 0.29636
v -1.03529 -1.18196 0.80794
v -1.03529 -1.26296 0.80259
v -1.03529 -1.33844 0.78689
v -1.03529 -1.40325 0.73894
v -1.03529 -1.45298 0.36117
v -1.03529 -1.48425 0.43665
v -1.03529 -1.45298 0.67412
v -1.03529 -1.48425 0.59864
v -1.03529 -1.49491 0.51765
v -1.03529 -1.49491 0.51765
v -1.03529 -1.48425 0.43665
v -1.03529 -1.48425 0.59864
v -1.03529 -1.45298 0.67412
v -1.03529 -1.45298 0.36117
v -1.03529 -1.40325 0.73894
v -1.03529 -1.40325 0.29636
v -1.03529 -1.38984 0.51765
v -1.03529 -1.38276 0.57145
v -1.03529 -1.38276 0.46384
v -1.03529 -1.33844 0.78689
v -1.03529 -1.36199 0.62159
v -1.03529 -1.32896 0.66464
v -1.03529 -1.33844 0.24663
v -1.03529 -1.36199 0.41371
v -1.03529 -1.32896 0.37065
v -1.03529 -1.26296 0.80259
v -1.03529 -1.28590 0.69768
v -1.03529 -1.23577 0.71845
v -1.03529 -1.18196 0.80794
v -1.03529 -1.18196 0.72553
v -1.03529 -1.26296 0.21536
v -1.03529 -1.28590 0.33761
v -1.03529 -1.23577 0.31685
v -1.03529 -1.10096 0.80259
v -1.03529 -1.12816 0.71845
v -1.03529 -1.07802 0.69768
v -1.03529 -1.18196 0.20470
v -1.03529 -1.18196 0.30976
v -1.03529 -1.12816 0.31685
v -1.03529 -1.10096 0.21536
v -1.03529 -1.07802 0.33761
v -1.03529 -1.02549 0.78689
v -1.03529 -1.03496 0.66464
v -1.03529 -1.00193 0.62159
v -1.03529 -1.02549 0.24663
v -1.03529 -1.03496 0.37065
v -1.03529 -1.00193 0.41371
v -1.03529 -0.96067 0.73894
v -1.03529 -0.96067 0.29636
v -1.03529 -0.98116 0.57145
v -1.03529 -0.98116 0.46384
v -1.03529 -0.97408 0.51765
v -1.03529 -0.91094 0.67412
v -1.03529 -0.91094 0.36117
v -1.03529 -0.87968 0.59864
v -1.03529 -0.87968 0.43665
v -1.03529 -0.86901 0.51765
v -0.94902 -1.22231 0.66825
v -0.94902 -1.18196 0.67356
v -1.03529 -1.23577 0.71845
v -1.03529 -1.18196 0.72553
v -0.94902 -1.22231 0.36705
v -0.94902 -1.25992 0.38262
v -1.03529 -1.23577 0.31685
v -1.03529 -1.28590 0.33761
v -0.94902 -1.07171 0.40740
v -0.94902 -1.10400 0.38262
v -1.03529 -1.03496 0.37065
v -1.03529 -1.07802 0.33761
v -1.03529 -1.38276 0.46384
v -0.94902 -1.33256 0.47729
v -1.03529 -1.38984 0.51765
v -0.94902 -1.33787 0.51765
v -0.94902 -1.18196 0.36173
v -1.03529 -1.18196 0.30976
v -0.94902 -1.03136 0.55800
v -1.03529 -0.98116 0.57145
v -0.94902 -1.04694 0.59560
v -1.03529 -1.00193 0.62159
v -0.94902 -1.33256 0.55800
v -1.03529 -1.38276 0.57145
v -0.94902 -1.29221 0.40740
v -1.03529 -1.32896 0.37065
v -0.94902 -1.02605 0.51765
v -1.03529 -0.97408 0.51765
v -0.94902 -1.14161 0.36705
v -1.03529 -1.12816 0.31685
v -1.03529 -1.00193 0.41371
v -1.03529 -0.98116 0.46384
v -0.94902 -1.04694 0.43969
v -0.94902 -1.03136 0.47729
v -0.94902 -1.29221 0.62789
v -0.94902 -1.25992 0.65267
v -1.03529 -1.32896 0.66464
v -1.03529 -1.28590 0.69768
v -0.94902 -1.07171 0.62789
v -1.03529 -1.03496 0.66464
v -1.03529 -1.36199 0.41371
v -0.94902 -1.31699 0.43969
v -0.94902 -1.10400 0.65267
v -0.94902 -1.14161 0.66825
v -0.94902 -1.31699 0.59560
v -1.03529 -1.12816 0.71845
v -1.03529 -1.07802 0.69768
v -1.03529 -1.36199 0.62159
v -1.12157 1.74591 0.69020
v -0.89150 1.74591 0.69020
v -1.12157 1.74570 0.69182
v -0.89204 1.74570 0.69182
v -1.12157 1.94118 0.34510
v -1.12157 1.94118 0.69020
v -1.12157 1.61333 0.34510
v -1.12157 1.67847 0.81976
v -1.12157 1.61333 0.51765
v -1.12157 1.57153 0.88974
v -1.12157 1.59569 0.65162
v -1.12157 1.54398 0.77647
v -1.12157 1.43216 0.94344
v -1.12157 1.46172 0.83460
v -1.12157 1.35451 0.87591
v -1.12157 1.26986 0.97720
v -1.12157 1.22966 0.90188
v -1.12157 1.09569 0.98871
v -1.12157 1.09569 0.91073
v -1.12157 0.96171 0.90188
v -1.12157 0.92152 0.97720
v -1.12157 0.83686 0.87591
v -1.12157 0.75922 0.94344
v -1.12157 0.72965 0.83460
v -1.12157 0.61985 0.88974
v -1.12157 0.64739 0.77647
v -1.12157 0.59568 0.65162
v -1.12157 0.51290 0.81976
v -1.12157 0.57804 0.51765
v -1.12157 0.57804 0.34510
v -1.12157 0.42275 0.51765
v -1.12157 0.44567 0.69182
v -1.12157 -0.66431 0.34510
v -1.12157 -0.50902 0.51765
v -1.12157 -0.53195 0.69182
v -1.12157 -0.59918 0.81976
v -1.12157 -0.66431 0.51765
v -1.12157 -0.70612 0.88974
v -1.12157 -0.68195 0.65162
v -1.12157 -0.73367 0.77647
v -1.12157 -0.84549 0.94344
v -1.12157 -0.81593 0.83460
v -1.12157 -0.92314 0.87591
v -1.12157 -1.00779 0.97720
v -1.12157 -1.04798 0.90188
v -1.12157 -1.18196 0.98871
v -1.12157 -1.18196 0.91073
v -1.12157 -1.31594 0.90188
v -1.12157 -1.35613 0.97720
v -1.12157 -1.44078 0.87591
v -1.12157 -1.51843 0.94344
v -1.12157 -1.54799 0.83460
v -1.12157 -1.65780 0.88974
v -1.12157 -1.63026 0.77647
v -1.12157 -1.68197 0.65162
v -1.12157 -1.76474 0.81976
v -1.12157 -1.69961 0.51765
v -1.12157 -1.69961 0.34510
v -1.12157 -1.94118 0.34510
v -1.12157 -1.83219 0.69020
v -1.12157 -1.83197 0.69182
v -1.12157 -1.94118 0.69020
v 1.12157 -1.83197 0.69182
v 1.12157 -1.76474 0.81976
v 1.12157 -1.83219 0.69020
v 1.12157 -1.94118 0.34510
v 1.12157 -1.94118 0.69020
v 1.12157 -1.69961 0.34510
v 1.12157 -1.69961 0.51765
v 1.12157 -1.68197 0.65162
v 1.12157 -1.65780 0.88974
v 1.12157 -1.63026 0.77647
v 1.12157 -1.54799 0.83460
v 1.12157 -1.51843 0.94344
v 1.12157 -1.44078 0.87591
v 1.12157 -1.35613 0.97720
v 1.12157 -1.31594 0.90188
v 1.12157 -1.18196 0.91073
v 1.12157 -1.18196 0.98871
v 1.12157 -1.04798 0.90188
v 1.12157 -1.00779 0.97720
v 1.12157 -0.92314 0.87591
v 1.12157 -0.84549 0.94344
v 1.12157 -0.81593 0.83460
v 1.12157 -0.73367 0.77647
v 1.12157 -0.70612 0.88974
v 1.12157 -0.68195 0.65162
v 1.12157 -0.66431 0.51765
v 1.12157 -0.59918 0.81976
v 1.12157 -0.66431 0.34510
v 1.12157 -0.53195 0.69182
v 1.12157 -0.50902 0.51765
v 1.12157 0.42275 0.51765
v 1.12157 0.57804 0.34510
v 1.12157 0.51290 0.81976
v 1.12157 0.44567 0.69182
v 1.12157 0.57804 0.51765
v 1.12157 0.59568 0.65162
v 1.12157 0.61985 0.88974
v 1.12157 0.64739 0.77647
v 1.12157 0.72965 0.83460
v 1.12157 0.75922 0.94344
v 1.12157 0.83686 0.87591
v 1.12157 0.92152 0.97720
v 1.12157 0.96171 0.90188
v 1.12157 1.09569 0.91073
v 1.12157 1.09569 0.98871
v 1.12157 1.22966 0.90188
v 1.12157 1.26986 0.97720
v 1.12157 1.35451 0.87591
v 1.12157 1.43216 0.94344
v 1.12157 1.46172 0.83460
v 1.12157 1.54398 0.77647
v 1.12157 1.57153 0.88974
v 1.12157 1.59569 0.65162
v 1.12157 1.61333 0.51765
v 1.12157 1.67847 0.81976
v 1.12157 1.61333 0.34510
v 1.12157 1.74570 0.69182
v 1.12157 1.74591 0.69020
v 1.12157 1.94118 0.34510
v 1.12157 1.94118 0.69020
v 0.94902 -1.75812 0.82409
v 0.94614 -1.76474 0.81976
v 0.94902 -2.02745 0.82409
v 0.89204 -1.83197 0.69182
v 0.89150 -1.83219 0.69020
v 0.89150 -1.96994 0.69020
v 0.94902 2.11373 0.82409
v 0.89150 1.99869 0.69020
v 0.94902 1.94118 0.82409
v 0.89150 1.74591 0.69020
v 0.89204 1.74570 0.69182
v 0.94614 1.67847 0.81976
v 0.94902 1.67185 0.82409
v -0.94902 -1.51843 0.94344
v -0.94902 -1.65780 0.88974
v -0.94902 0.92152 0.97720
v -0.94902 0.75922 0.94344
v 0.94902 -0.84549 0.94344
v 0.94902 -1.00779 0.97720
v 0.94902 0.92152 0.97720
v 0.94902 0.75922 0.94344
v 0.94902 1.57153 0.88974
v 0.94902 1.43216 0.94344
v 0.89204 -0.53195 0.69182
v 0.94614 -0.59918 0.81976
v 0.94614 0.51290 0.81976
v 0.94902 0.51952 0.82409
v 0.94902 0.61985 0.88974
v -0.94902 0.61985 0.88974
v 0.94902 -0.70612 0.88974
v 0.94902 -1.18196 0.98871
v 0.94902 -1.35613 0.97720
v 0.94902 -1.51843 0.94344
v 0.94902 -1.65780 0.88974
v -0.94902 1.09569 0.98871
v 0.94902 1.09569 0.98871
v -0.89204 -0.53195 0.69182
v -0.94614 -0.59918 0.81976
v 0.94902 1.26986 0.97720
v -0.94902 2.11373 0.82409
v -0.94902 1.94118 0.82409
v -0.89150 1.99869 0.69020
v -0.94614 1.67847 0.81976
v -0.94902 1.67185 0.82409
v -0.89204 0.44567 0.69182
v -0.94614 0.51290 0.81976
v -0.94902 0.51952 0.82409
v -0.94902 -0.60580 0.82409
v -0.83399 0.42275 0.51765
v -0.83399 -0.50902 0.51765
v 0.94902 -0.60580 0.82409
v 0.89204 0.44567 0.69182
v 0.83399 0.42275 0.51765
v 0.83399 -0.50902 0.51765
v -0.89204 -1.83197 0.69182
v -0.94614 -1.76474 0.81976
v -0.94902 -0.70612 0.88974
v -0.94902 -0.84549 0.94344
v -0.94902 1.26986 0.97720
v -0.94902 1.57153 0.88974
v -0.94902 -1.00779 0.97720
v -0.94902 -1.18196 0.98871
v -0.94902 -1.35613 0.97720
v -0.94902 -1.75812 0.82409
v -0.94902 1.43216 0.94344
v -0.89150 -1.96994 0.69020
v -0.94902 -2.02745 0.82409
v -0.89150 -1.83219 0.69020
v -0.94902 -2.11373 0.69020
v -1.07103 -2.06319 0.69020
v 0.94902 -2.11373 0.69020
v 1.07103 -2.06319 0.69020
v -0.94902 -2.11373 0.34510
v -1.07103 -2.06319 0.34510
v 0.94902 -2.11373 0.34510
v 1.07103 -2.06319 0.34510
v 0.94902 2.11373 0.34510
v 1.07103 2.06319 0.34510
v 0.94902 2.11373 0.69020
v 1.07103 2.06319 0.69020
v -0.94902 2.11373 0.34510
v -0.94902 2.11373 0.69020
v -1.07103 2.06319 0.34510
v -1.07103 2.06319 0.69020
v 0.69020 0.57804 0.34510
v 0.69020 -0.66431 0.34510
v 0.69020 1.61333 0.34510
v -0.69020 1.61333 0.34510
v -0.69020 0.57804 0.34510
v -0.69020 -1.69961 0.34510
v -0.69020 -0.66431 0.34510
v 0.69020 -1.69961 0.34510
v -0.21569 2.20000 0.25882
v -0.30196 2.20000 0.34510
v -0.21569 2.11373 0.25882
v -0.30196 2.11373 0.34510
v 0.21569 2.20000 0.25882
v 0.21569 2.11373 0.25882
v 0.30196 2.20000 0.34510
v 0.30196 2.11373 0.34510
v -0.21569 2.20000 0.56078
v -0.21569 2.11373 0.56078
v -0.30196 2.20000 0.47451
v -0.30196 2.11373 0.47451
v 0.30196 2.11373 0.47451
v 0.21569 2.11373 0.56078
v 0.21569 2.20000 0.56078
v 0.30196 2.20000 0.47451
v 0.21569 -2.20000 0.25882
v 0.30196 -2.20000 0.34510
v 0.21569 -2.11373 0.25882
v 0.30196 -2.11373 0.34510
v -0.21569 -2.20000 0.25882
v -0.21569 -2.11373 0.25882
v -0.30196 -2.20000 0.34510
v -0.30196 -2.11373 0.34510
v 0.21569 -2.20000 0.56078
v 0.21569 -2.11373 0.56078
v 0.30196 -2.20000 0.47451
v 0.30196 -2.11373 0.47451
v -0.30196 -2.11373 0.47451
v -0.21569 -2.11373 0.56078
v -0.21569 -2.20000 0.56078
v -0.30196 -2.20000 0.47451
v 0.69020 0.64739 0.77647
v 0.69020 0.72965 0.83460
v 0.69020 0.83686 0.87591
v 0.69020 0.96171 0.90188
v 0.69020 1.59569 0.65162
v 0.69020 1.54398 0.77647
v 0.69020 -1.44078 0.87591
v 0.69020 -1.31594 0.90188
v 0.69020 -1.63026 0.77647
v 0.69020 -1.54799 0.83460
v -0.69020 0.57804 0.51765
v 0.69020 1.09569 0.91073
v 0.69020 1.22966 0.90188
v 0.69020 -0.66431 0.51765
v 0.69020 1.61333 0.51765
v 0.69020 -0.92314 0.87591
v 0.69020 -0.81593 0.83460
v 0.69020 1.35451 0.87591
v 0.69020 1.46172 0.83460
v 0.69020 -1.18196 0.91073
v 0.69020 -1.04798 0.90188
v 0.69020 -0.68195 0.65162
v 0.69020 0.59568 0.65162
v 0.69020 0.57804 0.51765
v 0.69020 -0.73367 0.77647
v 0.69020 -1.69961 0.51765
v 0.69020 -1.68197 0.65162
v -0.69020 -1.69961 0.51765
v -0.69020 -1.68197 0.65162
v -0.69020 -0.66431 0.51765
v -0.69020 -1.18196 0.91073
v -0.69020 -1.04798 0.90188
v -0.69020 -0.92314 0.87591
v -0.69020 -1.63026 0.77647
v -0.69020 -1.54799 0.83460
v -0.69020 -0.68195 0.65162
v -0.69020 -0.73367 0.77647
v -0.69020 -0.81593 0.83460
v -0.69020 -1.44078 0.87591
v -0.69020 -1.31594 0.90188
v -0.69020 1.61333 0.51765
v -0.69020 1.59569 0.65162
v -0.69020 1.54398 0.77647
v -0.69020 1.46172 0.83460
v -0.69020 1.35451 0.87591
v -0.69020 1.22966 0.90188
v -0.69020 1.09569 0.91073
v -0.69020 0.96171 0.90188
v -0.69020 0.83686 0.87591
v -0.69020 0.72965 0.83460
v -0.69020 0.64739 0.77647
v -0.69020 0.59568 0.65162
v 1.29412 -0.77285 0.99738
v 0.94902 -0.77285 0.99738
v 1.29412 -0.77285 1.08402
v 0.94902 -0.77285 1.08402
v 1.29412 -0.60030 1.08402
v 0.94902 -0.60030 1.08402
v -0.94902 -2.02745 0.91073
v -0.94902 -1.85490 0.91073
v -0.94902 -1.85490 1.01182
v -0.94902 -0.99216 1.08402
v -0.94902 -0.77285 1.08402
v -0.94902 -0.77285 0.99738
v -0.94902 -0.60030 0.99738
v -0.94902 0.19883 1.08402
v -0.94902 -0.60030 1.08402
v -0.94902 1.25098 1.08402
v -0.94902 2.11373 0.99738
v -0.94902 2.11373 0.91073
v 1.29412 -0.60030 0.99738
v 0.94902 -0.60030 0.99738
v 0.94902 2.11373 0.99738
v 0.94902 1.25098 1.08402
v 0.47451 2.11373 0.99738
v -0.47451 2.11373 0.99738
v 0.94902 -0.99216 1.08402
v 0.77438 -0.99216 1.08402
v 0.77647 -0.30196 1.51724
v 0.62878 -0.40975 1.44958
v -0.62878 -0.40975 1.44958
v -0.77647 -0.30196 1.51724
v -0.77438 -0.99216 1.08402
v -1.29412 -0.77285 0.99738
v -1.29412 -0.60030 0.99738
v 0.94902 -1.85490 1.01182
v 0.94902 -2.02745 0.99738
v 0.47451 -2.02745 0.99738
v -0.47451 -2.02745 0.99738
v -0.94902 -2.02745 0.99738
v -1.29412 -0.60030 1.08402
v -1.29412 -0.77285 1.08402
v 0.47451 2.11373 0.91073
v -0.47451 2.11373 0.91073
v 0.94902 2.11373 0.91073
v 0.94902 -1.85490 0.91073
v 0.94902 -2.02745 0.91073
v 0.94902 0.19883 1.08402
v 0.77647 0.81296 1.51724
v -0.77647 0.81296 1.51724
v 0.79373 0.94039 1.47392
v -0.79373 0.94039 1.47392
v 0.81031 -0.21801 1.43228
v 0.81031 0.19883 1.43228
v -0.81031 0.19883 1.43228
v -0.81031 -0.21801 1.43228
v -0.47451 -2.02745 0.91073
v 0.47451 -2.02745 0.91073
v -0.74148 1.18690 1.16447
v 0.74148 1.18690 1.16447
v -0.63301 0.96997 1.43679
v 0.63301 0.96997 1.43679
v 0.94902 -1.85490 1.01182
v 0.94902 -1.85490 0.91073
v -0.94902 -1.85490 0.91073
v -0.94902 -1.85490 1.01182
v -0.74148 1.18690 1.16447
v 0.74148 1.18690 1.16447
v -0.63301 0.96997 1.43679
v 0.63301 0.96997 1.43679
v 0.77438 -0.99216 1.08402
v -0.77438 -0.99216 1.08402
v 0.62878 -0.40975 1.44958
v -0.62878 -0.40975 1.44958
v 0.81031 0.19883 1.43228
v 0.94902 0.19883 1.08402
v 0.81031 -0.21801 1.43228
v 0.94902 -0.60030 1.08402
v 0.94902 -0.77285 1.08402
v -0.94902 0.19883 1.08402
v -0.81031 0.19883 1.43228
v -0.94902 -0.60030 1.08402
v -0.81031 -0.21801 1.43228
v -0.94902 -0.77285 1.08402
v -0.94902 2.11373 0.91073
v -0.47451 2.11373 0.91073
v -0.94902 2.11373 0.99738
v -0.47451 2.11373 0.99738
v 0.47451 2.11373 0.91073
v 0.94902 2.11373 0.91073
v 0.47451 2.11373 0.99738
v 0.94902 2.11373 0.99738
v 0.60392 1.35451 0.87591
v 0.86275 1.35451 0.87591
v 0.60392 1.46172 0.83460
v 0.86275 1.46172 0.83460
v 1.03529 1.53569 0.51765
v 0.86275 1.61333 0.51765
v 1.03529 1.52069 0.63153
v 0.86275 1.59569 0.65162
v 0.86275 0.72965 0.15162
v 1.03529 0.78456 0.20652
v 0.86275 0.64739 0.25882
v 1.03529 0.71464 0.29765
v 1.03529 1.47674 0.73765
v 0.86275 1.54398 0.77647
v 1.03529 1.40681 0.80703
v 0.60392 0.72965 0.15162
v 0.60392 0.64739 0.25882
v 0.60392 0.59568 0.38367
v 0.86275 0.59568 0.38367
v 0.60392 0.57804 0.51765
v 0.86275 0.57804 0.51765
v 1.03529 1.31569 0.84214
v 0.86275 1.35451 0.06935
v 0.86275 1.46172 0.15162
v 1.03529 1.31569 0.13660
v 1.03529 1.40681 0.20652
v 0.86275 0.83686 0.06935
v 1.03529 0.87569 0.13660
v 0.86275 0.83686 0.87591
v 1.03529 0.87569 0.84214
v 0.86275 0.96171 0.90188
v 1.03529 0.98181 0.86421
v 0.86275 0.72965 0.83460
v 1.03529 0.78456 0.80703
v 1.03529 0.67068 0.40377
v 0.60392 0.59568 0.65162
v 0.86275 0.59568 0.65162
v 0.60392 0.64739 0.77647
v 0.86275 0.64739 0.77647
v 0.86275 1.22966 0.90188
v 1.03529 1.20957 0.86421
v 0.60392 1.46172 0.15162
v 0.86275 1.54398 0.25882
v 0.60392 1.54398 0.25882
v 0.60392 0.72965 0.83460
v 0.60392 0.96171 0.01764
v 0.60392 1.09569 0.00000
v 0.86275 0.96171 0.01764
v 0.86275 1.09569 0.00000
v 0.60392 1.09569 0.91073
v 0.86275 1.09569 0.91073
v 0.60392 1.22966 0.90188
v 0.86275 1.59569 0.38367
v 0.60392 1.59569 0.38367
v 1.03529 0.65569 0.51765
v 0.60392 1.35451 0.06935
v 0.60392 1.22966 0.01764
v 0.86275 1.22966 0.01764
v 1.03529 0.71464 0.73765
v 0.60392 0.83686 0.06935
v 1.03529 1.09569 0.87174
v 1.03529 0.67068 0.63153
v 0.60392 1.54398 0.77647
v 0.60392 0.83686 0.87591
v 0.60392 1.61333 0.51765
v 0.60392 1.59569 0.65162
v 1.03529 1.20957 0.09264
v 1.03529 1.47674 0.29765
v 0.43137 1.20957 0.86421
v 0.43137 1.31569 0.84214
v 1.03529 0.98181 0.09264
v 1.03529 1.52069 0.40377
v 1.03529 1.09569 0.07765
v 0.60392 0.96171 0.90188
v 0.43137 0.78456 0.80703
v 0.43137 0.87569 0.84214
v 0.43137 0.87569 0.13660
v 0.43137 0.98181 0.09264
v 0.43137 0.98181 0.86421
v 0.43137 1.09569 0.87174
v 0.43137 1.52069 0.63153
v 0.43137 1.47674 0.73765
v 0.43137 0.65569 0.51765
v 0.43137 0.67068 0.63153
v 0.43137 0.71464 0.29765
v 0.43137 0.67068 0.40377
v 0.43137 0.71464 0.73765
v 0.43137 0.78456 0.20652
v 0.43137 1.09569 0.07765
v 0.43137 1.40681 0.80703
v 0.43137 1.40681 0.20652
v 0.43137 1.47674 0.29765
v 0.43137 1.52069 0.40377
v 0.43137 1.53569 0.51765
v 0.43137 1.20957 0.09264
v 0.43137 1.31569 0.13660
v 1.03529 1.40864 0.51765
v 1.03529 1.39797 0.43665
v 1.03529 1.39797 0.59864
v 1.03529 1.36671 0.36117
v 1.03529 1.31697 0.29636
v 1.03529 1.25216 0.24663
v 1.03529 1.17668 0.21536
v 1.03529 1.09569 0.20470
v 1.03529 1.36671 0.67412
v 1.03529 1.31697 0.73894
v 1.03529 1.25216 0.78689
v 1.03529 1.17668 0.80259
v 1.03529 1.01469 0.21536
v 1.03529 0.93921 0.24663
v 1.03529 0.87440 0.29636
v 1.03529 1.09569 0.80794
v 1.03529 1.01469 0.80259
v 1.03529 0.93921 0.78689
v 1.03529 0.87440 0.73894
v 1.03529 0.82466 0.36117
v 1.03529 0.79340 0.43665
v 1.03529 0.82466 0.67412
v 1.03529 0.79340 0.59864
v 1.03529 0.78274 0.51765
v 1.03529 0.78274 0.51765
v 1.03529 0.79340 0.43665
v 1.03529 0.79340 0.59864
v 1.03529 0.82466 0.67412
v 1.03529 0.82466 0.36117
v 1.03529 0.87440 0.73894
v 1.03529 0.87440 0.29636
v 1.03529 0.88780 0.51765
v 1.03529 0.89489 0.57145
v 1.03529 0.89489 0.46384
v 1.03529 0.93921 0.78689
v 1.03529 0.91565 0.62159
v 1.03529 0.94869 0.66464
v 1.03529 0.93921 0.24663
v 1.03529 0.91565 0.41371
v 1.03529 0.94869 0.37065
v 1.03529 1.01469 0.80259
v 1.03529 0.99174 0.69768
v 1.03529 1.04188 0.71845
v 1.03529 1.09569 0.80794
v 1.03529 1.09569 0.72553
v 1.03529 1.01469 0.21536
v 1.03529 0.99174 0.33761
v 1.03529 1.04188 0.31685
v 1.03529 1.17668 0.80259
v 1.03529 1.14949 0.71845
v 1.03529 1.19963 0.69768
v 1.03529 1.09569 0.20470
v 1.03529 1.09569 0.30976
v 1.03529 1.14949 0.31685
v 1.03529 1.17668 0.21536
v 1.03529 1.19963 0.33761
v 1.03529 1.25216 0.78689
v 1.03529 1.24268 0.66464
v 1.03529 1.27572 0.62159
v 1.03529 1.25216 0.24663
v 1.03529 1.24268 0.37065
v 1.03529 1.27572 0.41371
v 1.03529 1.31697 0.73894
v 1.03529 1.31697 0.29636
v 1.03529 1.29649 0.57145
v 1.03529 1.29649 0.46384
v 1.03529 1.30357 0.51765
v 1.03529 1.36671 0.67412
v 1.03529 1.36671 0.36117
v 1.03529 1.39797 0.59864
v 1.03529 1.39797 0.43665
v 1.03529 1.40864 0.51765
v 0.94902 1.05533 0.66825
v 0.94902 1.09569 0.67356
v 1.03529 1.04188 0.71845
v 1.03529 1.09569 0.72553
v 0.94902 1.05533 0.36705
v 0.94902 1.01773 0.38262
v 1.03529 1.04188 0.31685
v 1.03529 0.99174 0.33761
v 0.94902 1.20593 0.40740
v 0.94902 1.17364 0.38262
v 1.03529 1.24268 0.37065
v 1.03529 1.19963 0.33761
v 1.03529 0.89489 0.46384
v 0.94902 0.94509 0.47729
v 1.03529 0.88780 0.51765
v 0.94902 0.93977 0.51765
v 0.94902 1.09569 0.36173
v 1.03529 1.09569 0.30976
v 0.94902 1.24629 0.55800
v 1.03529 1.29649 0.57145
v 0.94902 1.23071 0.59560
v 1.03529 1.27572 0.62159
v 0.94902 0.94509 0.55800
v 1.03529 0.89489 0.57145
v 0.94902 0.98544 0.40740
v 1.03529 0.94869 0.37065
v 0.94902 1.25160 0.51765
v 1.03529 1.30357 0.51765
v 0.94902 1.13604 0.36705
v 1.03529 1.14949 0.31685
v 1.03529 1.27572 0.41371
v 1.03529 1.29649 0.46384
v 0.94902 1.23071 0.43969
v 0.94902 1.24629 0.47729
v 0.94902 0.98544 0.62789
v 0.94902 1.01773 0.65267
v 1.03529 0.94869 0.66464
v 1.03529 0.99174 0.69768
v 0.94902 1.20593 0.62789
v 1.03529 1.24268 0.66464
v 1.03529 0.91565 0.41371
v 0.94902 0.96066 0.43969
v 0.94902 1.17364 0.65267
v 0.94902 1.13604 0.66825
v 0.94902 0.96066 0.59560
v 1.03529 1.14949 0.71845
v 1.03529 1.19963 0.69768
v 1.03529 0.91565 0.62159
v -0.60392 1.35451 0.87591
v -0.86275 1.35451 0.87591
v -0.60392 1.46172 0.83460
v -0.86275 1.46172 0.83460
v -1.03529 1.53569 0.51765
v -0.86275 1.61333 0.51765
v -1.03529 1.52069 0.63153
v -0.86275 1.59569 0.65162
v -0.86275 0.72965 0.15162
v -1.03529 0.78456 0.20652
v -0.86275 0.64739 0.25882
v -1.03529 0.71464 0.29765
v -1.03529 1.47674 0.73765
v -0.86275 1.54398 0.77647
v -1.03529 1.40681 0.80703
v -0.60392 0.72965 0.15162
v -0.60392 0.64739 0.25882
v -0.60392 0.59568 0.38367
v -0.86275 0.59568 0.38367
v -0.60392 0.57804 0.51765
v -0.86275 0.57804 0.51765
v -1.03529 1.31569 0.84214
v -0.86275 1.35451 0.06935
v -0.86275 1.46172 0.15162
v -1.03529 1.31569 0.13660
v -1.03529 1.40681 0.20652
v -0.86275 0.83686 0.06935
v -1.03529 0.87569 0.13660
v -0.86275 0.83686 0.87591
v -1.03529 0.87569 0.84214
v -0.86275 0.96171 0.90188
v -1.03529 0.98181 0.86421
v -0.86275 0.72965 0.83460
v -1.03529 0.78456 0.80703
v -1.03529 0.67068 0.40377
v -0.60392 0.59568 0.65162
v -0.86275 0.59568 0.65162
v -0.60392 0.64739 0.77647
v -0.86275 0.64739 0.77647
v -0.86275 1.22966 0.90188
v -1.03529 1.20957 0.86421
v -0.60392 1.46172 0.15162
v -0.86275 1.54398 0.25882
v -0.60392 1.54398 0.25882
v -0.60392 0.72965 0.83460
v -0.60392 0.96171 0.01764
v -0.60392 1.09569 0.00000
v -0.86275 0.96171 0.01764
v -0.86275 1.09569 0.00000
v -0.60392 1.09569 0.91073
v -0.86275 1.09569 0.91073
v -0.60392 1.22966 0.90188
v -0.86275 1.59569 0.38367
v -0.60392 1.59569 0.38367
v -1.03529 0.65569 0.51765
v -0.60392 1.35451 0.06935
v -0.60392 1.22966 0.01764
v -0.86275 1.22966 0.01764
v -1.03529 0.71464 0.73765
v -0.60392 0.83686 0.06935
v -1.03529 1.09569 0.87174
v -1.03529 0.67068 0.63153
v -0.60392 1.54398 0.77647
v -0.60392 0.83686 0.87591
v -0.60392 1.61333 0.51765
v -0.60392 1.59569 0.65162
v -1.03529 1.20957 0.09264
v -1.03529 1.47674 0.29765
v -0.43137 1.20957 0.86421
v -0.43137 1.31569 0.84214
v -1.03529 0.98181 0.09264
v -1.03529 1.52069 0.40377
v -1.03529 1.09569 0.07765
v -0.60392 0.96171 0.90188
v -0.43137 0.78456 0.80703
v -0.43137 0.87569 0.84214
v -0.43137 0.87569 0.13660
v -0.43137 0.98181 0.09264
v -0.43137 0.98181 0.86421
v -0.43137 1.09569 0.87174
v -0.43137 1.52069 0.63153
v -0.43137 1.47674 0.73765
v -0.43137 0.65569 0.51765
v -0.43137 0.67068 0.63153
v -0.43137 0.71464 0.29765
v -0.43137 0.67068 0.40377
v -0.43137 0.71464 0.73765
v -0.43137 0.78456 0.20652
v -0.43137 1.09569 0.07765
v -0.43137 1.40681 0.80703
v -0.43137 1.40681 0.20652
v -0.43137 1.47674 0.29765
v -0.43137 1.52069 0.40377
v -0.43137 1.53569 0.51765
v -0.43137 1.20957 0.09264
v -0.43137 1.31569 0.13660
v -1.03529 1.40864 0.51765
v -1.03529 1.39797 0.43665
v -1.03529 1.39797 0.59864
v -1.03529 1.36671 0.36117
v -1.03529 1.31697 0.29636
v -1.03529 1.25216 0.24663
v -1.03529 1.17668 0.21536
v -1.03529 1.09569 0.20470
v -1.03529 1.36671 0.67412
v -1.03529 1.31697 0.73894
v -1.03529 1.25216 0.78689
v -1.03529 1.17668 0.80259
v -1.03529 1.01469 0.21536
v -1.03529 0.93921 0.24663
v -1.03529 0.87440 0.29636
v -1.03529 1.09569 0.80794
v -1.03529 1.01469 0.80259
v -1.03529 0.93921 0.78689
v -1.03529 0.87440 0.73894
v -1.03529 0.82466 0.36117
v -1.03529 0.79340 0.43665
v -1.03529 0.82466 0.67412
v -1.03529 0.79340 0.59864
v -1.03529 0.78274 0.51765
v -1.03529 0.78274 0.51765
v -1.03529 0.79340 0.43665
v -1.03529 0.79340 0.59864
v -1.03529 0.82466 0.67412
v -1.03529 0.82466 0.36117
v -1.03529 0.87440 0.73894
v -1.03529 0.87440 0.29636
v -1.03529 0.88780 0.51765
v -1.03529 0.89489 0.57145
v -1.03529 0.89489 0.46384
v -1.03529 0.93921 0.78689
v -1.03529 0.91565 0.62159
v -1.03529 0.94869 0.66464
v -1.03529 0.93921 0.24663
v -1.03529 0.91565 0.41371
v -1.03529 0.94869 0.37065
v -1.03529 1.01469 0.80259
v -1.03529 0.99174 0.69768
v -1.03529 1.04188 0.71845
v -1.03529 1.09569 0.80794
v -1.03529 1.09569 0.72553
v -1.03529 1.01469 0.21536
v -1.03529 0.99174 0.33761
v -1.03529 1.04188 0.31685
v -1.03529 1.17668 0.80259
v -1.03529 1.14949 0.71845
v -1.03529 1.19963 0.69768
v -1.03529 1.09569 0.20470
v -1.03529 1.09569 0.30976
v -1.03529 1.14949 0.31685
v -1.03529 1.17668 0.21536
v -1.03529 1.19963 0.33761
v -1.03529 1.25216 0.78689
v -1.03529 1.24268 0.66464
v -1.03529 1.27572 0.62159
v -1.03529 1.25216 0.24663
v -1.03529 1.24268 0.37065
v -1.03529 1.27572 0.41371
v -1.03529 1.31697 0.73894
v -1.03529 1.31697 0.29636
v -1.03529 1.29649 0.57145
v -1.03529 1.29649 0.46384
v -1.03529 1.30357 0.51765
v -1.03529 1.36671 0.67412
v -1.03529 1.36671 0.36117
v -1.03529 1.39797 0.59864
v -1.03529 1.39797 0.43665
v -1.03529 1.40864 0.51765
v -0.94902 1.05533 0.66825
v -0.94902 1.09569 0.67356
v -1.03529 1.04188 0.71845
v -1.03529 1.09569 0.72553
v -0.94902 1.05533 0.36705
v -0.94902 1.01773 0.38262
v -1.03529 1.04188 0.31685
v -1.03529 0.99174 0.33761
v -0.94902 1.20593 0.40740
v -0.94902 1.17364 0.38262
v -1.03529 1.24268 0.37065
v -1.03529 1.19963 0.33761
v -1.03529 0.89489 0.46384
v -0.94902 0.94509 0.47729
v -1.03529 0.88780 0.51765
v -0.94902 0.93977 0.51765
v -0.94902 1.09569 0.36173
v -1.03529 1.09569 0.30976
v -0.94902 1.24629 0.55800
v -1.03529 1.29649 0.57145
v -0.94902 1.23071 0.59560
v -1.03529 1.27572 0.62159
v -0.94902 0.94509 0.55800
v -1.03529 0.89489 0.57145
v -0.94902 0.98544 0.40740
v -1.03529 0.94869 0.37065
v -0.94902 1.25160 0.51765
v -1.03529 1.30357 0.51765
v -0.94902 1.13604 0.36705
v -1.03529 1.14949 0.31685
v -1.03529 1.27572 0.41371
v -1.03529 1.29649 0.46384
v -0.94902 1.23071 0.43969
v -0.94902 1.24629 0.47729
v -0.94902 0.98544 0.62789
v -0.94902 1.01773 0.65267
v -1.03529 0.94869 0.66464
v -1.03529 0.99174 0.69768
v -0.94902 1.20593 0.62789
v -1.03529 1.24268 0.66464
v -1.03529 0.91565 0.41371
v -0.94902 0.96066 0.43969
v -0.94902 1.17364 0.65267
v -0.94902 1.13604 0.66825
v -0.94902 0.96066 0.59560
v -1.03529 1.14949 0.71845
v -1.03529 1.19963 0.69768
v -1.03529 0.91565 0.62159
v 0.60392 -0.92314 0.87591
v 0.86275 -0.92314 0.87591
v 0.60392 -0.81593 0.83460
v 0.86275 -0.81593 0.83460
v 1.03529 -0.74196 0.51765
v 0.86275 -0.66431 0.51765
v 1.03529 -0.75695 0.63153
v 0.86275 -0.68195 0.65162
v 0.86275 -1.54799 0.15162
v 1.03529 -1.49309 0.20652
v 0.86275 -1.63026 0.25882
v 1.03529 -1.56301 0.29765
v 1.03529 -0.80091 0.73765
v 0.86275 -0.73367 0.77647
v 1.03529 -0.87083 0.80703
v 0.60392 -1.54799 0.15162
v 0.60392 -1.63026 0.25882
v 0.60392 -1.68197 0.38367
v 0.86275 -1.68197 0.38367
v 0.60392 -1.69961 0.51765
v 0.86275 -1.69961 0.51765
v 1.03529 -0.96196 0.84214
v 0.86275 -0.92314 0.06935
v 0.86275 -0.81593 0.15162
v 1.03529 -0.96196 0.13660
v 1.03529 -0.87083 0.20652
v 0.86275 -1.44078 0.06935
v 1.03529 -1.40196 0.13660
v 0.86275 -1.44078 0.87591
v 1.03529 -1.40196 0.84214
v 0.86275 -1.31594 0.90188
v 1.03529 -1.29584 0.86421
v 0.86275 -1.54799 0.83460
v 1.03529 -1.49309 0.80703
v 1.03529 -1.60697 0.40377
v 0.60392 -1.68197 0.65162
v 0.86275 -1.68197 0.65162
v 0.60392 -1.63026 0.77647
v 0.86275 -1.63026 0.77647
v 0.86275 -1.04798 0.90188
v 1.03529 -1.06808 0.86421
v 0.60392 -0.81593 0.15162
v 0.86275 -0.73367 0.25882
v 0.60392 -0.73367 0.25882
v 0.60392 -1.54799 0.83460
v 0.60392 -1.31594 0.01764
v 0.60392 -1.18196 0.00000
v 0.86275 -1.31594 0.01764
v 0.86275 -1.18196 0.00000
v 0.60392 -1.18196 0.91073
v 0.86275 -1.18196 0.91073
v 0.60392 -1.04798 0.90188
v 0.86275 -0.68195 0.38367
v 0.60392 -0.68195 0.38367
v 1.03529 -1.62196 0.51765
v 0.60392 -0.92314 0.06935
v 0.60392 -1.04798 0.01764
v 0.86275 -1.04798 0.01764
v 1.03529 -1.56301 0.73765
v 0.60392 -1.44078 0.06935
v 1.03529 -1.18196 0.87174
v 1.03529 -1.60697 0.63153
v 0.60392 -0.73367 0.77647
v 0.60392 -1.44078 0.87591
v 0.60392 -0.66431 0.51765
v 0.60392 -0.68195 0.65162
v 1.03529 -1.06808 0.09264
v 1.03529 -0.80091 0.29765
v 0.43137 -1.06808 0.86421
v 0.43137 -0.96196 0.84214
v 1.03529 -1.29584 0.09264
v 1.03529 -0.75695 0.40377
v 1.03529 -1.18196 0.07765
v 0.60392 -1.31594 0.90188
v 0.43137 -1.49309 0.80703
v 0.43137 -1.40196 0.84214
v 0.43137 -1.40196 0.13660
v 0.43137 -1.29584 0.09264
v 0.43137 -1.29584 0.86421
v 0.43137 -1.18196 0.87174
v 0.43137 -0.75695 0.63153
v 0.43137 -0.80091 0.73765
v 0.43137 -1.62196 0.51765
v 0.43137 -1.60697 0.63153
v 0.43137 -1.56301 0.29765
v 0.43137 -1.60697 0.40377
v 0.43137 -1.56301 0.73765
v 0.43137 -1.49309 0.20652
v 0.43137 -1.18196 0.07765
v 0.43137 -0.87083 0.80703
v 0.43137 -0.87083 0.20652
v 0.43137 -0.80091 0.29765
v 0.43137 -0.75695 0.40377
v 0.43137 -0.74196 0.51765
v 0.43137 -1.06808 0.09264
v 0.43137 -0.96196 0.13660
v 1.03529 -0.86901 0.51765
v 1.03529 -0.87968 0.43665
v 1.03529 -0.87968 0.59864
v 1.03529 -0.91094 0.36117
v 1.03529 -0.96067 0.29636
v 1.03529 -1.02549 0.24663
v 1.03529 -1.10096 0.21536
v 1.03529 -1.18196 0.20470
v 1.03529 -0.91094 0.67412
v 1.03529 -0.96067 0.73894
v 1.03529 -1.02549 0.78689
v 1.03529 -1.10096 0.80259
v 1.03529 -1.26296 0.21536
v 1.03529 -1.33844 0.24663
v 1.03529 -1.40325 0.29636
v 1.03529 -1.18196 0.80794
v 1.03529 -1.26296 0.80259
v 1.03529 -1.33844 0.78689
v 1.03529 -1.40325 0.73894
v 1.03529 -1.45298 0.36117
v 1.03529 -1.48425 0.43665
v 1.03529 -1.45298 0.67412
v 1.03529 -1.48425 0.59864
v 1.03529 -1.49491 0.51765
v 1.03529 -1.49491 0.51765
v 1.03529 -1.48425 0.43665
v 1.03529 -1.48425 0.59864
v 1.03529 -1.45298 0.67412
v 1.03529 -1.45298 0.36117
v 1.03529 -1.40325 0.73894
v 1.03529 -1.40325 0.29636
v 1.03529 -1.38984 0.51765
v 1.03529 -1.38276 0.57145
v 1.03529 -1.38276 0.46384
v 1.03529 -1.33844 0.78689
v 1.03529 -1.36199 0.62159
v 1.03529 -1.32896 0.66464
v 1.03529 -1.33844 0.24663
v 1.03529 -1.36199 0.41371
v 1.03529 -1.32896 0.37065
v 1.03529 -1.26296 0.80259
v 1.03529 -1.28590 0.69768
v 1.03529 -1.23577 0.71845
v 1.03529 -1.18196 0.80794
v 1.03529 -1.18196 0.72553
v 1.03529 -1.26296 0.21536
v 1.03529 -1.28590 0.33761
v 1.03529 -1.23577 0.31685
v 1.03529 -1.10096 0.80259
v 1.03529 -1.12816 0.71845
v 1.03529 -1.07802 0.69768
v 1.03529 -1.18196 0.20470
v 1.03529 -1.18196 0.30976
v 1.03529 -1.12816 0.31685
v 1.03529 -1.10096 0.21536
v 1.03529 -1.07802 0.33761
v 1.03529 -1.02549 0.78689
v 1.03529 -1.03496 0.66464
v 1.03529 -1.00193 0.62159
v 1.03529 -1.02549 0.24663
v 1.03529 -1.03496 0.37065
v 1.03529 -1.00193 0.41371
v 1.03529 -0.96067 0.73894
v 1.03529 -0.96067 0.29636
v 1.03529 -0.98116 0.57145
v 1.03529 -0.98116 0.46384
v 1.03529 -0.97408 0.51765
v 1.03529 -0.91094 0.67412
v 1.03529 -0.91094 0.36117
v 1.03529 -0.87968 0.59864
v 1.03529 -0.87968 0.43665
v 1.03529 -0.86901 0.51765
v 0.94902 -1.22231 0.66825
v 0.94902 -1.18196 0.67356
v 1.03529 -1.23577 0.71845
v 1.03529 -1.18196 0.72553
v 0.94902 -1.22231 0.36705
v 0.94902 -1.25992 0.38262
v 1.03529 -1.23577 0.31685
v 1.03529 -1.28590 0.33761
v 0.94902 -1.07171 0.40740
v 0.94902 -1.10400 0.38262
v 1.03529 -1.03496 0.37065
v 1.03529 -1.07802 0.33761
v 1.03529 -1.38276 0.46384
v 0.94902 -1.33256 0.47729
v 1.03529 -1.38984 0.51765
v 0.94902 -1.33787 0.51765
v 0.94902 -1.18196 0.36173
v 1.03529 -1.18196 0.30976
v 0.94902 -1.03136 0.55800
v 1.03529 -0.98116 0.57145
v 0.94902 -1.04694 0.59560
v 1.03529 -1.00193 0.62159
v 0.94902 -1.33256 0.55800
v 1.03529 -1.38276 0.57145
v 0.94902 -1.29221 0.40740
v 1.03529 -1.32896 0.37065
v 0.94902 -1.02605 0.51765
v 1.03529 -0.97408 0.51765
v 0.94902 -1.14161 0.36705
v 1.03529 -1.12816 0.31685
v 1.03529 -1.00193 0.41371
v 1.03529 -0.98116 0.46384
v 0.94902 -1.04694 0.43969
v 0.94902 -1.03136 0.47729
v 0.94902 -1.29221 0.62789
v 0.94902 -1.25992 0.65267
v 1.03529 -1.32896 0.66464
v 1.03529 -1.28590 0.69768
v 0.94902 -1.07171 0.62789
v 1.03529 -1.03496 0.66464
v 1.03529 -1.36199 0.41371
v 0.94902 -1.31699 0.43969
v 0.94902 -1.10400 0.65267
v 0.94902 -1.14161 0.66825
v 0.94902 -1.31699 0.59560
v 1.03529 -1.12816 0.71845
v 1.03529 -1.07802 0.69768
v 1.03529 -1.36199 0.62159
usemtl m0
f 3 2 1
f 2 3 4
f 7 6 5
f 6 7 8
f 11 10 9
f 10 11 12
f 15 14 13
f 14 15 4
f 17 9 16
f 9 17 11
f 20 19 18
f 19 20 21
f 4 22 2
f 22 4 15
f 25 24 23
f 24 25 26
f 10 27 9
f 27 10 28
f 31 30 29
f 30 31 32
f 29 34 33
f 34 29 30
f 19 12 11
f 12 19 35
f 38 37 36
f 37 38 39
f 2 41 40
f 41 2 22
f 43 42 24
f 42 43 44
f 45 39 38
f 39 45 33
f 48 47 46
f 47 48 49
f 52 51 50
f 51 52 40
f 53 44 43
f 44 53 54
f 21 35 19
f 35 21 55
f 23 42 56
f 42 23 24
f 58 56 57
f 56 58 23
f 18 11 17
f 11 18 19
f 49 57 47
f 57 49 58
f 39 34 59
f 34 39 33
f 9 60 16
f 60 9 27
f 1 40 52
f 40 1 2
f 51 32 31
f 32 51 61
f 37 59 62
f 59 37 39
f 40 61 51
f 61 40 41
f 4 63 14
f 63 4 3
f 36 21 20
f 21 36 37
f 13 8 7
f 8 13 14
f 37 55 21
f 55 37 62
f 64 33 45
f 33 64 29
f 8 65 6
f 65 8 66
f 67 23 58
f 23 67 25
f 26 43 24
f 43 26 68
f 70 52 69
f 52 70 1
f 28 48 27
f 48 28 71
f 14 66 8
f 66 14 63
f 6 54 53
f 54 6 65
f 72 6 53
f 6 72 5
f 73 58 49
f 58 73 67
f 71 49 48
f 49 71 73
f 74 29 64
f 29 74 31
f 27 46 60
f 46 27 48
f 68 53 43
f 53 68 72
f 50 31 74
f 31 50 51
f 76 45 75
f 45 76 64
f 60 78 77
f 78 60 46
f 80 74 79
f 74 80 50
f 79 64 76
f 64 79 74
f 66 82 81
f 82 66 63
f 84 20 83
f 20 84 36
f 85 18 17
f 18 85 86
f 75 38 87
f 38 75 45
f 16 77 88
f 77 16 60
f 46 89 78
f 89 46 47
f 86 20 18
f 20 86 83
f 88 17 16
f 17 88 85
f 63 90 82
f 90 63 3
f 44 91 42
f 91 44 92
f 65 93 54
f 93 65 94
f 47 95 89
f 95 47 57
f 90 1 70
f 1 90 3
f 69 50 80
f 50 69 52
f 54 92 44
f 92 54 93
f 56 91 96
f 91 56 42
f 66 94 65
f 94 66 81
f 81 93 94
f 93 81 92
f 92 81 82
f 92 82 90
f 92 90 91
f 91 90 70
f 91 70 96
f 96 70 69
f 96 69 95
f 95 69 80
f 95 80 89
f 89 80 79
f 89 79 78
f 78 79 76
f 78 76 77
f 77 76 75
f 77 75 88
f 88 75 87
f 88 87 85
f 85 87 84
f 85 84 86
f 86 84 83
f 57 96 95
f 96 57 56
f 87 36 84
f 36 87 38
f 72 7 5
f 7 72 68
f 7 68 13
f 13 68 26
f 13 26 97
f 97 15 13
f 97 26 98
f 15 97 99
f 98 26 25
f 15 99 22
f 98 25 100
f 100 25 101
f 101 25 102
f 102 25 67
f 102 67 103
f 103 67 73
f 103 73 104
f 22 99 105
f 22 105 106
f 22 106 107
f 22 107 41
f 41 107 108
f 104 73 71
f 104 71 109
f 109 71 110
f 110 71 28
f 110 28 111
f 41 108 61
f 61 108 112
f 61 112 113
f 61 113 32
f 32 113 114
f 32 114 30
f 30 114 115
f 111 28 10
f 30 115 34
f 111 10 116
f 116 10 117
f 34 115 118
f 34 118 119
f 117 10 120
f 34 119 120
f 120 10 12
f 34 120 59
f 59 120 12
f 59 12 35
f 59 35 62
f 62 35 55
usemtl m1
f 123 122 121
f 122 123 124
f 122 124 125
f 125 124 126
f 125 126 127
f 127 126 128
f 126 129 128
f 127 128 130
f 129 126 131
f 129 131 132
f 132 131 133
f 127 130 134
f 134 130 135
f 134 135 136
f 133 131 137
f 133 137 138
f 138 137 139
f 139 137 140
f 139 140 141
f 134 136 142
f 142 136 143
f 142 143 144
f 141 140 145
f 141 145 146
f 146 145 147
f 142 144 148
f 148 144 149
f 148 149 150
f 148 150 151
f 151 150 152
f 147 145 153
f 147 153 154
f 154 153 155
f 151 152 156
f 156 152 157
f 156 157 158
f 155 153 159
f 156 158 160
f 155 159 161
f 160 158 162
f 161 159 163
f 160 162 163
f 160 163 159
f 160 159 164
f 160 164 165
f 165 164 166
f 165 166 167
f 167 166 168
f 171 170 169
f 170 171 172
f 175 174 173
f 174 175 176
f 179 178 177
f 178 179 180
f 183 182 181
f 182 183 184
f 185 175 173
f 175 185 186
f 189 188 187
f 188 189 190
f 183 191 184
f 191 183 192
f 176 193 174
f 193 176 194
f 187 196 195
f 196 187 188
f 198 185 197
f 185 198 186
f 201 200 199
f 200 201 202
f 205 204 203
f 204 205 206
f 178 198 197
f 198 178 180
f 206 169 204
f 169 206 171
f 207 190 189
f 190 207 208
f 181 210 209
f 210 181 182
f 202 187 195
f 187 202 201
f 187 201 189
f 189 201 177
f 189 177 207
f 207 177 178
f 207 178 211
f 211 178 197
f 211 197 212
f 212 197 185
f 212 185 170
f 170 185 173
f 170 173 169
f 169 173 174
f 169 174 204
f 204 174 193
f 204 193 203
f 203 193 210
f 203 210 213
f 213 210 182
f 213 182 191
f 191 182 184
f 172 212 170
f 212 172 214
f 215 207 211
f 207 215 208
f 214 211 212
f 211 214 215
f 177 199 179
f 199 177 201
f 216 203 213
f 203 216 205
f 209 193 194
f 193 209 210
f 202 196 200
f 196 202 195
f 192 213 191
f 213 192 216
usemtl m2
f 219 218 217
f 218 219 220
f 223 222 221
f 222 223 217
f 217 223 219
f 219 223 224
f 224 223 225
f 224 225 226
f 226 225 227
f 226 227 228
f 226 228 229
f 229 228 230
f 229 230 231
f 229 231 232
f 232 231 233
f 232 233 234
f 234 233 235
f 234 235 236
f 234 236 237
f 237 236 238
f 237 238 239
f 239 238 240
f 239 240 241
f 241 240 242
f 241 242 243
f 241 243 244
f 244 243 245
f 244 245 246
f 244 246 247
f 244 247 248
f 247 246 249
f 247 249 250
f 250 249 251
f 251 249 252
f 252 249 253
f 252 253 254
f 254 253 255
f 254 255 256
f 254 256 257
f 257 256 258
f 257 258 259
f 257 259 260
f 260 259 261
f 260 261 262
f 262 261 263
f 262 263 264
f 262 264 265
f 265 264 266
f 265 266 267
f 267 266 268
f 267 268 269
f 269 268 270
f 269 270 271
f 269 271 272
f 272 271 273
f 272 273 274
f 272 274 275
f 272 275 276
f 272 276 277
f 276 275 278
f 281 280 279
f 282 280 281
f 282 281 283
f 284 280 282
f 285 280 284
f 286 280 285
f 286 287 280
f 288 287 286
f 289 287 288
f 289 290 287
f 291 290 289
f 291 292 290
f 293 292 291
f 294 292 293
f 294 295 292
f 296 295 294
f 296 297 295
f 298 297 296
f 298 299 297
f 300 299 298
f 301 299 300
f 301 302 299
f 303 302 301
f 304 302 303
f 302 304 305
f 306 305 304
f 306 307 305
f 306 308 307
f 306 309 308
f 310 309 306
f 310 311 309
f 309 311 312
f 313 311 310
f 314 311 313
f 314 315 311
f 316 315 314
f 317 315 316
f 317 318 315
f 319 318 317
f 319 320 318
f 321 320 319
f 322 320 321
f 322 323 320
f 324 323 322
f 324 325 323
f 326 325 324
f 326 327 325
f 328 327 326
f 329 327 328
f 329 330 327
f 331 330 329
f 332 330 331
f 330 332 333
f 334 333 332
f 334 335 333
f 334 336 335
f 337 336 334
f 336 337 338
f 341 340 339
f 340 341 342
f 342 341 343
f 343 341 344
f 347 346 345
f 346 347 348
f 348 347 349
f 349 347 350
f 350 347 351
f 267 353 352
f 353 267 269
f 237 355 354
f 355 237 239
f 356 297 299
f 297 356 357
f 358 318 320
f 318 358 359
f 360 327 330
f 327 360 361
f 362 305 307
f 305 362 363
f 311 365 364
f 365 311 315
f 365 315 366
f 239 367 355
f 367 239 241
f 368 299 302
f 299 368 356
f 359 315 318
f 315 359 366
f 357 295 297
f 295 357 369
f 369 292 295
f 292 369 370
f 371 287 290
f 287 371 372
f 234 354 373
f 354 234 237
f 374 320 323
f 320 374 358
f 252 375 251
f 375 252 376
f 361 325 327
f 325 361 377
f 380 379 378
f 379 380 218
f 379 218 220
f 379 220 381
f 379 381 382
f 384 248 383
f 248 384 244
f 384 386 385
f 386 384 383
f 386 383 387
f 386 387 376
f 376 387 375
f 375 387 388
f 280 342 279
f 342 280 340
f 389 364 365
f 364 389 390
f 390 389 391
f 391 389 363
f 391 363 362
f 391 362 392
f 393 272 277
f 272 393 394
f 254 396 395
f 396 254 257
f 232 373 397
f 373 232 234
f 224 220 219
f 220 224 381
f 251 388 250
f 388 251 375
f 312 364 390
f 364 312 311
f 226 381 224
f 381 226 382
f 382 226 398
f 309 390 391
f 390 309 312
f 260 400 399
f 400 260 262
f 280 339 340
f 339 280 287
f 339 287 372
f 389 305 363
f 305 389 302
f 302 389 368
f 362 308 392
f 308 362 307
f 265 352 401
f 352 265 267
f 385 244 384
f 244 385 241
f 241 385 367
f 402 272 394
f 272 402 269
f 269 402 353
f 377 323 325
f 323 377 374
f 262 401 400
f 401 262 265
f 349 336 348
f 336 349 335
f 247 388 387
f 388 247 250
f 229 397 403
f 397 229 232
f 349 333 335
f 333 349 350
f 383 247 387
f 247 383 248
f 252 386 376
f 386 252 254
f 386 254 395
f 257 399 396
f 399 257 260
f 350 330 333
f 330 350 351
f 330 351 360
f 391 308 309
f 308 391 392
f 370 290 292
f 290 370 371
f 341 404 344
f 404 341 405
f 276 404 406
f 404 276 407
f 407 344 404
f 407 276 408
f 408 276 278
f 409 344 407
f 409 343 344
f 410 343 409
f 283 343 410
f 343 283 281
f 393 276 406
f 276 393 277
f 226 403 398
f 403 226 229
f 394 405 402
f 405 394 393
f 405 393 406
f 405 406 404
f 279 343 281
f 343 279 342
f 378 346 380
f 346 378 345
f 407 412 411
f 412 407 408
f 412 278 275
f 278 412 408
f 409 411 413
f 411 409 407
f 410 282 283
f 282 410 414
f 410 413 414
f 413 410 409
f 417 416 415
f 416 417 418
f 420 415 419
f 415 420 417
f 422 419 421
f 419 422 420
f 217 422 222
f 217 420 422
f 218 420 217
f 380 420 218
f 346 420 380
f 420 346 417
f 348 417 346
f 348 418 417
f 336 418 348
f 418 336 338
f 306 423 310
f 423 306 424
f 423 424 425
f 419 425 424
f 415 425 419
f 416 425 415
f 416 334 425
f 334 416 337
f 419 424 426
f 419 426 223
f 419 223 421
f 421 223 221
f 426 424 427
f 424 428 427
f 429 427 428
f 427 429 246
f 246 429 249
f 424 411 428
f 428 411 274
f 430 411 424
f 274 411 412
f 274 412 275
f 430 413 411
f 430 414 413
f 430 282 414
f 282 430 284
f 221 422 421
f 422 221 222
f 338 416 418
f 416 338 337
f 433 432 431
f 432 433 434
f 436 431 435
f 431 436 433
f 438 435 437
f 435 438 436
f 441 440 439
f 440 441 442
f 434 441 432
f 441 434 442
f 438 433 436
f 433 438 434
f 434 438 443
f 434 443 442
f 442 443 444
f 442 444 440
f 439 444 445
f 444 439 440
f 443 437 446
f 437 443 438
f 445 443 446
f 443 445 444
f 449 448 447
f 448 449 450
f 452 447 451
f 447 452 449
f 454 451 453
f 451 454 452
f 457 456 455
f 456 457 458
f 450 457 448
f 457 450 458
f 454 449 452
f 449 454 450
f 450 454 459
f 450 459 458
f 458 459 460
f 458 460 456
f 455 460 461
f 460 455 456
f 459 453 462
f 453 459 454
f 461 459 462
f 459 461 460
usemtl m0
f 463 317 316
f 317 463 464
f 465 321 319
f 321 465 466
f 329 467 331
f 467 329 468
f 469 293 291
f 293 469 470
f 471 289 288
f 289 471 472
f 245 427 246
f 427 245 473
f 474 324 322
f 324 474 475
f 304 424 306
f 424 304 476
f 332 425 334
f 425 332 477
f 472 291 289
f 291 472 469
f 478 300 298
f 300 478 479
f 480 328 326
f 328 480 481
f 470 294 293
f 294 470 482
f 483 298 296
f 298 483 478
f 328 468 329
f 468 328 481
f 464 319 317
f 319 464 465
f 303 476 304
f 476 303 484
f 485 316 314
f 316 485 463
f 486 314 313
f 314 486 485
f 331 477 332
f 477 331 467
f 475 326 324
f 326 475 480
f 301 484 303
f 484 301 487
f 488 286 285
f 286 488 489
f 300 487 301
f 487 300 479
f 489 288 286
f 288 489 471
f 466 322 321
f 322 466 474
f 273 428 274
f 428 273 490
f 482 296 294
f 296 482 483
f 271 490 273
f 490 271 491
f 492 249 429
f 249 492 253
f 263 494 493
f 494 263 261
f 261 495 494
f 495 261 259
f 268 496 270
f 496 268 497
f 498 253 492
f 253 498 255
f 500 256 499
f 256 500 258
f 499 255 498
f 255 499 256
f 259 500 495
f 500 259 258
f 268 501 497
f 501 268 266
f 264 493 502
f 493 264 263
f 270 491 271
f 491 270 496
f 266 502 501
f 502 266 264
f 428 492 429
f 492 428 498
f 498 428 499
f 499 428 500
f 500 428 495
f 495 428 494
f 494 428 493
f 493 428 502
f 502 428 501
f 501 428 497
f 497 428 496
f 496 428 491
f 491 428 490
f 484 424 476
f 424 484 430
f 430 484 487
f 430 487 479
f 430 479 478
f 430 478 483
f 430 483 482
f 430 482 470
f 430 470 469
f 430 469 472
f 430 472 471
f 430 471 489
f 430 489 488
f 488 284 430
f 284 488 285
f 467 425 477
f 425 467 423
f 423 467 468
f 423 468 481
f 423 481 480
f 423 480 475
f 423 475 474
f 423 474 466
f 423 466 465
f 423 465 464
f 423 464 463
f 423 463 485
f 423 485 486
f 427 503 426
f 503 427 504
f 504 427 505
f 505 427 506
f 506 427 507
f 507 427 508
f 508 427 509
f 509 427 510
f 510 427 511
f 511 427 512
f 512 427 513
f 513 427 514
f 514 427 473
f 486 310 423
f 310 486 313
f 243 473 245
f 473 243 514
f 503 223 426
f 223 503 225
f 235 508 509
f 508 235 233
f 233 507 508
f 507 233 231
f 242 512 513
f 512 242 240
f 504 225 503
f 225 504 227
f 506 228 505
f 228 506 230
f 505 227 504
f 227 505 228
f 240 511 512
f 511 240 238
f 236 509 510
f 509 236 235
f 231 506 507
f 506 231 230
f 242 514 243
f 514 242 513
f 238 510 511
f 510 238 236
usemtl m3
f 517 516 515
f 516 517 518
f 520 517 519
f 517 520 518
f 522 405 521
f 405 522 402
f 523 402 522
f 523 353 402
f 523 352 353
f 523 401 352
f 523 400 401
f 524 400 523
f 524 399 400
f 524 396 399
f 525 396 524
f 526 396 525
f 526 395 396
f 526 386 395
f 527 386 526
f 528 386 527
f 529 528 527
f 528 385 386
f 528 367 385
f 528 355 367
f 528 354 355
f 528 373 354
f 530 373 528
f 530 397 373
f 530 403 397
f 530 398 403
f 530 379 398
f 398 379 382
f 531 379 530
f 532 379 531
f 379 532 378
f 516 533 515
f 533 516 534
f 537 536 535
f 536 537 530
f 530 537 538
f 530 538 531
f 541 540 539
f 540 541 542
f 542 541 543
f 544 543 541
f 524 543 544
f 543 524 545
f 546 527 526
f 527 546 547
f 540 548 539
f 548 540 549
f 549 540 550
f 550 540 545
f 550 545 551
f 551 545 552
f 552 545 524
f 552 524 523
f 553 525 529
f 525 553 554
f 555 538 537
f 538 555 556
f 557 556 555
f 557 532 556
f 345 532 557
f 532 345 378
f 525 546 526
f 546 525 554
f 546 553 547
f 553 546 554
f 517 533 519
f 533 517 515
f 539 516 518
f 516 539 356
f 356 539 357
f 368 516 356
f 357 539 369
f 389 516 368
f 369 539 548
f 369 548 370
f 370 548 371
f 371 548 372
f 372 548 339
f 339 548 558
f 339 558 341
f 341 558 559
f 389 534 516
f 389 560 534
f 534 560 520
f 365 560 389
f 366 560 365
f 359 560 366
f 358 560 359
f 374 560 358
f 374 536 560
f 377 536 374
f 361 536 377
f 360 536 361
f 347 536 360
f 347 360 351
f 345 536 347
f 557 536 345
f 536 557 535
f 562 541 561
f 541 562 544
f 564 561 563
f 561 564 562
f 518 541 539
f 565 541 518
f 566 541 565
f 541 566 561
f 560 561 566
f 560 563 561
f 563 560 536
f 528 564 530
f 564 528 562
f 562 528 567
f 562 567 544
f 544 567 568
f 544 568 525
f 544 525 524
f 569 550 551
f 550 569 570
f 521 570 569
f 521 559 570
f 405 559 521
f 559 405 341
f 530 571 536
f 571 530 564
f 572 536 571
f 571 564 573
f 536 572 563
f 573 564 574
f 563 572 574
f 563 574 564
usemtl m4
f 520 533 534
f 533 520 519
f 553 527 547
f 527 553 529
f 432 435 431
f 435 432 437
f 437 432 441
f 437 441 446
f 446 441 439
f 446 439 445
f 448 451 447
f 451 448 453
f 453 448 457
f 453 457 462
f 462 457 455
f 462 455 461
usemtl m5
f 551 521 569
f 521 551 552
f 549 570 559
f 570 549 550
f 549 576 575
f 576 549 559
f 521 578 577
f 578 521 552
usemtl m1
f 581 580 579
f 580 581 582
f 585 584 583
f 584 585 586
f 589 588 587
f 588 589 590
f 590 589 591
f 594 593 592
f 593 594 595
f 595 594 596
usemtl m6
f 599 598 597
f 598 599 600
f 603 602 601
f 602 603 604
usemtl m0
f 659 639 666
f 666 639 663
f 639 616 663
f 616 724 663
f 663 724 638
f 616 614 724
f 724 723 638
f 724 614 721
f 723 722 638
f 722 719 638
f 721 614 720
f 720 614 715
f 638 719 634
f 614 632 715
f 719 718 634
f 634 718 636
f 718 717 636
f 636 717 665
f 717 716 665
f 716 712 665
f 665 712 645
f 715 632 714
f 632 675 714
f 714 675 713
f 713 675 708
f 675 677 708
f 712 711 645
f 645 711 626
f 711 710 626
f 710 709 626
f 709 703 626
f 708 677 707
f 677 671 707
f 707 671 706
f 671 629 706
f 706 629 705
f 705 629 704
f 704 629 702
f 626 703 619
f 629 630 702
f 703 701 619
f 702 630 701
f 617 619 701
f 701 630 617
f 630 672 617
f 617 672 611
f 672 676 611
f 609 611 676
f 642 691 640
f 688 640 691
f 660 661 700
f 699 700 661
f 687 688 690
f 690 688 689
f 688 691 689
f 689 691 692
f 691 679 692
f 692 679 681
f 679 680 681
f 681 680 682
f 680 683 682
f 682 683 693
f 683 684 693
f 693 684 699
f 684 673 699
f 699 673 700
f 673 674 700
f 700 674 695
f 674 694 695
f 695 694 696
f 694 686 696
f 686 685 696
f 696 685 697
f 698 697 685
f 685 670 698
f 669 698 670
f 646 660 695
f 700 695 660
f 697 658 696
f 648 696 658
f 656 673 654
f 684 654 673
f 607 694 605
f 674 605 694
f 661 651 699
f 693 699 651
f 698 669 697
f 658 697 669
f 696 648 695
f 646 695 648
f 607 667 694
f 686 694 667
f 689 692 621
f 620 621 692
f 687 690 624
f 622 624 690
f 651 650 693
f 682 693 650
f 664 620 681
f 692 681 620
f 649 679 642
f 691 642 679
f 690 689 622
f 621 622 689
f 640 688 624
f 687 624 688
f 667 670 686
f 685 686 670
f 678 683 668
f 680 668 683
f 654 684 678
f 683 678 684
f 650 664 682
f 681 682 664
f 668 680 649
f 679 649 680
f 655 654 635
f 678 635 654
f 676 672 657
f 647 657 672
f 652 631 650
f 664 650 631
f 635 678 633
f 668 633 678
f 677 675 653
f 652 653 675
f 671 677 662
f 653 662 677
f 609 676 610
f 657 610 676
f 669 610 658
f 657 658 610
f 667 618 670
f 612 670 618
f 675 632 652
f 631 652 632
f 605 674 656
f 673 656 674
f 672 630 647
f 628 647 630
f 629 671 627
f 662 627 671
f 670 612 669
f 610 669 612
f 633 668 637
f 649 637 668
f 666 641 659
f 625 659 641
f 618 617 612
f 611 612 617
f 641 640 625
f 624 625 640
f 607 608 667
f 618 667 608
f 645 644 665
f 655 665 644
f 643 641 663
f 666 663 641
f 665 655 636
f 635 636 655
f 606 605 644
f 656 644 605
f 631 613 664
f 620 664 613
f 637 643 638
f 663 638 643
f 662 653 661
f 651 661 653
f 623 622 615
f 621 615 622
f 627 662 660
f 661 660 662
f 628 627 646
f 660 646 627
f 659 625 639
f 623 639 625
f 658 657 648
f 647 648 657
f 644 656 655
f 654 655 656
f 653 652 651
f 650 651 652
f 637 649 643
f 642 643 649
f 648 647 646
f 628 646 647
f 626 606 645
f 644 645 606
f 643 642 641
f 640 641 642
f 639 623 616
f 615 616 623
f 634 633 638
f 637 638 633
f 636 635 634
f 633 634 635
f 632 614 631
f 613 631 614
f 630 629 628
f 627 628 629
f 619 608 626
f 606 626 608
f 625 624 623
f 622 623 624
f 615 621 613
f 620 613 621
f 608 619 618
f 617 618 619
f 616 615 614
f 613 614 615
f 612 611 610
f 609 610 611
f 608 607 606
f 605 606 607
usemtl m1
f 772 770 771
f 771 770 769
f 770 768 769
f 769 768 764
f 768 763 764
f 763 767 764
f 767 766 764
f 767 763 765
f 766 762 764
f 765 763 759
f 764 762 760
f 763 757 759
f 762 761 760
f 761 756 760
f 760 756 755
f 759 757 758
f 758 757 751
f 757 749 751
f 756 754 755
f 755 754 752
f 754 753 752
f 753 748 752
f 752 748 746
f 751 749 750
f 750 749 745
f 749 744 745
f 748 747 746
f 747 740 746
f 746 740 738
f 745 744 743
f 744 741 743
f 743 741 742
f 742 741 737
f 741 735 737
f 740 739 738
f 739 734 738
f 738 734 731
f 737 735 736
f 736 735 733
f 735 730 733
f 734 732 731
f 732 733 730
f 732 730 731
f 731 730 729
f 730 728 729
f 729 728 726
f 728 727 726
f 725 726 727
f 820 796 817
f 795 817 796
f 799 806 800
f 804 800 806
f 814 813 797
f 798 797 813
f 809 820 807
f 817 807 820
f 805 781 803
f 783 803 781
f 819 818 815
f 816 815 818
f 812 819 811
f 815 811 819
f 818 776 816
f 774 816 776
f 788 786 795
f 795 786 817
f 786 814 817
f 817 814 807
f 814 797 807
f 807 797 808
f 797 778 808
f 808 778 773
f 778 777 773
f 773 777 774
f 777 789 774
f 774 789 816
f 789 801 816
f 816 801 815
f 801 782 815
f 815 782 811
f 782 781 811
f 811 781 793
f 781 805 793
f 793 805 791
f 805 806 791
f 799 791 806
f 786 785 814
f 813 814 785
f 812 811 794
f 793 794 811
f 775 810 773
f 808 773 810
f 784 782 802
f 801 802 782
f 810 809 808
f 807 808 809
f 806 805 804
f 803 804 805
f 790 802 789
f 801 789 802
f 792 791 800
f 799 800 791
f 798 780 797
f 778 797 780
f 796 787 795
f 788 795 787
f 794 793 792
f 791 792 793
f 790 789 779
f 777 779 789
f 788 787 786
f 785 786 787
f 784 783 782
f 781 782 783
f 780 779 778
f 777 778 779
f 776 775 774
f 773 774 775
usemtl m0
f 823 822 821
f 822 823 824
f 827 826 825
f 826 827 828
f 831 830 829
f 830 831 832
f 835 834 833
f 834 835 824
f 837 829 836
f 829 837 831
f 840 839 838
f 839 840 841
f 824 842 822
f 842 824 835
f 845 844 843
f 844 845 846
f 830 847 829
f 847 830 848
f 851 850 849
f 850 851 852
f 849 854 853
f 854 849 850
f 839 832 831
f 832 839 855
f 858 857 856
f 857 858 859
f 822 861 860
f 861 822 842
f 863 862 844
f 862 863 864
f 865 859 858
f 859 865 853
f 868 867 866
f 867 868 869
f 872 871 870
f 871 872 860
f 873 864 863
f 864 873 874
f 841 855 839
f 855 841 875
f 843 862 876
f 862 843 844
f 878 876 877
f 876 878 843
f 838 831 837
f 831 838 839
f 869 877 867
f 877 869 878
f 859 854 879
f 854 859 853
f 829 880 836
f 880 829 847
f 821 860 872
f 860 821 822
f 871 852 851
f 852 871 881
f 857 879 882
f 879 857 859
f 860 881 871
f 881 860 861
f 824 883 834
f 883 824 823
f 856 841 840
f 841 856 857
f 833 828 827
f 828 833 834
f 857 875 841
f 875 857 882
f 884 853 865
f 853 884 849
f 828 885 826
f 885 828 886
f 887 843 878
f 843 887 845
f 846 863 844
f 863 846 888
f 890 872 889
f 872 890 821
f 848 868 847
f 868 848 891
f 834 886 828
f 886 834 883
f 826 874 873
f 874 826 885
f 892 826 873
f 826 892 825
f 893 878 869
f 878 893 887
f 891 869 868
f 869 891 893
f 894 849 884
f 849 894 851
f 847 866 880
f 866 847 868
f 888 873 863
f 873 888 892
f 870 851 894
f 851 870 871
f 896 865 895
f 865 896 884
f 880 898 897
f 898 880 866
f 900 894 899
f 894 900 870
f 899 884 896
f 884 899 894
f 886 902 901
f 902 886 883
f 904 840 903
f 840 904 856
f 905 838 837
f 838 905 906
f 895 858 907
f 858 895 865
f 836 897 908
f 897 836 880
f 866 909 898
f 909 866 867
f 906 840 838
f 840 906 903
f 908 837 836
f 837 908 905
f 883 910 902
f 910 883 823
f 864 911 862
f 911 864 912
f 885 913 874
f 913 885 914
f 867 915 909
f 915 867 877
f 910 821 890
f 821 910 823
f 889 870 900
f 870 889 872
f 874 912 864
f 912 874 913
f 876 911 916
f 911 876 862
f 886 914 885
f 914 886 901
f 901 913 914
f 913 901 912
f 912 901 902
f 912 902 910
f 912 910 911
f 911 910 890
f 911 890 916
f 916 890 889
f 916 889 915
f 915 889 900
f 915 900 909
f 909 900 899
f 909 899 898
f 898 899 896
f 898 896 897
f 897 896 895
f 897 895 908
f 908 895 907
f 908 907 905
f 905 907 904
f 905 904 906
f 906 904 903
f 877 916 915
f 916 877 876
f 907 856 904
f 856 907 858
f 892 827 825
f 827 892 888
f 827 888 833
f 833 888 846
f 833 846 917
f 917 835 833
f 917 846 918
f 835 917 919
f 918 846 845
f 835 919 842
f 918 845 920
f 920 845 921
f 921 845 922
f 922 845 887
f 922 887 923
f 923 887 893
f 923 893 924
f 842 919 925
f 842 925 926
f 842 926 927
f 842 927 861
f 861 927 928
f 924 893 891
f 924 891 929
f 929 891 930
f 930 891 848
f 930 848 931
f 861 928 881
f 881 928 932
f 881 932 933
f 881 933 852
f 852 933 934
f 852 934 850
f 850 934 935
f 931 848 830
f 850 935 854
f 931 830 936
f 936 830 937
f 854 935 938
f 854 938 939
f 937 830 940
f 854 939 940
f 940 830 832
f 854 940 879
f 879 940 832
f 879 832 855
f 879 855 882
f 882 855 875
usemtl m1
f 943 942 941
f 942 943 944
f 942 944 945
f 945 944 946
f 945 946 947
f 947 946 948
f 946 949 948
f 947 948 950
f 949 946 951
f 949 951 952
f 952 951 953
f 947 950 954
f 954 950 955
f 954 955 956
f 953 951 957
f 953 957 958
f 958 957 959
f 959 957 960
f 959 960 961
f 954 956 962
f 962 956 963
f 962 963 964
f 961 960 965
f 961 965 966
f 966 965 967
f 962 964 968
f 968 964 969
f 968 969 970
f 968 970 971
f 971 970 972
f 967 965 973
f 967 973 974
f 974 973 975
f 971 972 976
f 976 972 977
f 976 977 978
f 975 973 979
f 976 978 980
f 975 979 981
f 980 978 982
f 981 979 983
f 980 982 983
f 980 983 979
f 980 979 984
f 980 984 985
f 985 984 986
f 985 986 987
f 987 986 988
f 991 990 989
f 990 991 992
f 995 994 993
f 994 995 996
f 999 998 997
f 998 999 1000
f 1003 1002 1001
f 1002 1003 1004
f 1005 995 993
f 995 1005 1006
f 1009 1008 1007
f 1008 1009 1010
f 1003 1011 1004
f 1011 1003 1012
f 996 1013 994
f 1013 996 1014
f 1007 1016 1015
f 1016 1007 1008
f 1018 1005 1017
f 1005 1018 1006
f 1021 1020 1019
f 1020 1021 1022
f 1025 1024 1023
f 1024 1025 1026
f 998 1018 1017
f 1018 998 1000
f 1026 989 1024
f 989 1026 991
f 1027 1010 1009
f 1010 1027 1028
f 1001 1030 1029
f 1030 1001 1002
f 1022 1007 1015
f 1007 1022 1021
f 1007 1021 1009
f 1009 1021 997
f 1009 997 1027
f 1027 997 998
f 1027 998 1031
f 1031 998 1017
f 1031 1017 1032
f 1032 1017 1005
f 1032 1005 990
f 990 1005 993
f 990 993 989
f 989 993 994
f 989 994 1024
f 1024 994 1013
f 1024 1013 1023
f 1023 1013 1030
f 1023 1030 1033
f 1033 1030 1002
f 1033 1002 1011
f 1011 1002 1004
f 992 1032 990
f 1032 992 1034
f 1035 1027 1031
f 1027 1035 1028
f 1034 1031 1032
f 1031 1034 1035
f 997 1019 999
f 1019 997 1021
f 1036 1023 1033
f 1023 1036 1025
f 1029 1013 1014
f 1013 1029 1030
f 1022 1016 1020
f 1016 1022 1015
f 1012 1033 1011
f 1033 1012 1036
usemtl m0
f 1091 1071 1098
f 1098 1071 1095
f 1071 1048 1095
f 1048 1156 1095
f 1095 1156 1070
f 1048 1046 1156
f 1156 1155 1070
f 1156 1046 1153
f 1155 1154 1070
f 1154 1151 1070
f 1153 1046 1152
f 1152 1046 1147
f 1070 1151 1066
f 1046 1064 1147
f 1151 1150 1066
f 1066 1150 1068
f 1150 1149 1068
f 1068 1149 1097
f 1149 1148 1097
f 1148 1144 1097
f 1097 1144 1077
f 1147 1064 1146
f 1064 1107 1146
f 1146 1107 1145
f 1145 1107 1140
f 1107 1109 1140
f 1144 1143 1077
f 1077 1143 1058
f 1143 1142 1058
f 1142 1141 1058
f 1141 1135 1058
f 1140 1109 1139
f 1109 1103 1139
f 1139 1103 1138
f 1103 1061 1138
f 1138 1061 1137
f 1137 1061 1136
f 1136 1061 1134
f 1058 1135 1051
f 1061 1062 1134
f 1135 1133 1051
f 1134 1062 1133
f 1049 1051 1133
f 1133 1062 1049
f 1062 1104 1049
f 1049 1104 1043
f 1104 1108 1043
f 1041 1043 1108
f 1074 1123 1072
f 1120 1072 1123
f 1092 1093 1132
f 1131 1132 1093
f 1119 1120 1122
f 1122 1120 1121
f 1120 1123 1121
f 1121 1123 1124
f 1123 1111 1124
f 1124 1111 1113
f 1111 1112 1113
f 1113 1112 1114
f 1112 1115 1114
f 1114 1115 1125
f 1115 1116 1125
f 1125 1116 1131
f 1116 1105 1131
f 1131 1105 1132
f 1105 1106 1132
f 1132 1106 1127
f 1106 1126 1127
f 1127 1126 1128
f 1126 1118 1128
f 1118 1117 1128
f 1128 1117 1129
f 1130 1129 1117
f 1117 1102 1130
f 1101 1130 1102
f 1078 1092 1127
f 1132 1127 1092
f 1129 1090 1128
f 1080 1128 1090
f 1088 1105 1086
f 1116 1086 1105
f 1039 1126 1037
f 1106 1037 1126
f 1093 1083 1131
f 1125 1131 1083
f 1130 1101 1129
f 1090 1129 1101
f 1128 1080 1127
f 1078 1127 1080
f 1039 1099 1126
f 1118 1126 1099
f 1121 1124 1053
f 1052 1053 1124
f 1119 1122 1056
f 1054 1056 1122
f 1083 1082 1125
f 1114 1125 1082
f 1096 1052 1113
f 1124 1113 1052
f 1081 1111 1074
f 1123 1074 1111
f 1122 1121 1054
f 1053 1054 1121
f 1072 1120 1056
f 1119 1056 1120
f 1099 1102 1118
f 1117 1118 1102
f 1110 1115 1100
f 1112 1100 1115
f 1086 1116 1110
f 1115 1110 1116
f 1082 1096 1114
f 1113 1114 1096
f 1100 1112 1081
f 1111 1081 1112
f 1087 1086 1067
f 1110 1067 1086
f 1108 1104 1089
f 1079 1089 1104
f 1084 1063 1082
f 1096 1082 1063
f 1067 1110 1065
f 1100 1065 1110
f 1109 1107 1085
f 1084 1085 1107
f 1103 1109 1094
f 1085 1094 1109
f 1041 1108 1042
f 1089 1042 1108
f 1101 1042 1090
f 1089 1090 1042
f 1099 1050 1102
f 1044 1102 1050
f 1107 1064 1084
f 1063 1084 1064
f 1037 1106 1088
f 1105 1088 1106
f 1104 1062 1079
f 1060 1079 1062
f 1061 1103 1059
f 1094 1059 1103
f 1102 1044 1101
f 1042 1101 1044
f 1065 1100 1069
f 1081 1069 1100
f 1098 1073 1091
f 1057 1091 1073
f 1050 1049 1044
f 1043 1044 1049
f 1073 1072 1057
f 1056 1057 1072
f 1039 1040 1099
f 1050 1099 1040
f 1077 1076 1097
f 1087 1097 1076
f 1075 1073 1095
f 1098 1095 1073
f 1097 1087 1068
f 1067 1068 1087
f 1038 1037 1076
f 1088 1076 1037
f 1063 1045 1096
f 1052 1096 1045
f 1069 1075 1070
f 1095 1070 1075
f 1094 1085 1093
f 1083 1093 1085
f 1055 1054 1047
f 1053 1047 1054
f 1059 1094 1092
f 1093 1092 1094
f 1060 1059 1078
f 1092 1078 1059
f 1091 1057 1071
f 1055 1071 1057
f 1090 1089 1080
f 1079 1080 1089
f 1076 1088 1087
f 1086 1087 1088
f 1085 1084 1083
f 1082 1083 1084
f 1069 1081 1075
f 1074 1075 1081
f 1080 1079 1078
f 1060 1078 1079
f 1058 1038 1077
f 1076 1077 1038
f 1075 1074 1073
f 1072 1073 1074
f 1071 1055 1048
f 1047 1048 1055
f 1066 1065 1070
f 1069 1070 1065
f 1068 1067 1066
f 1065 1066 1067
f 1064 1046 1063
f 1045 1063 1046
f 1062 1061 1060
f 1059 1060 1061
f 1051 1040 1058
f 1038 1058 1040
f 1057 1056 1055
f 1054 1055 1056
f 1047 1053 1045
f 1052 1045 1053
f 1040 1051 1050
f 1049 1050 1051
f 1048 1047 1046
f 1045 1046 1047
f 1044 1043 1042
f 1041 1042 1043
f 1040 1039 1038
f 1037 1038 1039
usemtl m1
f 1204 1202 1203
f 1203 1202 1201
f 1202 1200 1201
f 1201 1200 1196
f 1200 1195 1196
f 1195 1199 1196
f 1199 1198 1196
f 1199 1195 1197
f 1198 1194 1196
f 1197 1195 1191
f 1196 1194 1192
f 1195 1189 1191
f 1194 1193 1192
f 1193 1188 1192
f 1192 1188 1187
f 1191 1189 1190
f 1190 1189 1183
f 1189 1181 1183
f 1188 1186 1187
f 1187 1186 1184
f 1186 1185 1184
f 1185 1180 1184
f 1184 1180 1178
f 1183 1181 1182
f 1182 1181 1177
f 1181 1176 1177
f 1180 1179 1178
f 1179 1172 1178
f 1178 1172 1170
f 1177 1176 1175
f 1176 1173 1175
f 1175 1173 1174
f 1174 1173 1169
f 1173 1167 1169
f 1172 1171 1170
f 1171 1166 1170
f 1170 1166 1163
f 1169 1167 1168
f 1168 1167 1165
f 1167 1162 1165
f 1166 1164 1163
f 1164 1165 1162
f 1164 1162 1163
f 1163 1162 1161
f 1162 1160 1161
f 1161 1160 1158
f 1160 1159 1158
f 1157 1158 1159
f 1252 1228 1249
f 1227 1249 1228
f 1231 1238 1232
f 1236 1232 1238
f 1246 1245 1229
f 1230 1229 1245
f 1241 1252 1239
f 1249 1239 1252
f 1237 1213 1235
f 1215 1235 1213
f 1251 1250 1247
f 1248 1247 1250
f 1244 1251 1243
f 1247 1243 1251
f 1250 1208 1248
f 1206 1248 1208
f 1220 1218 1227
f 1227 1218 1249
f 1218 1246 1249
f 1249 1246 1239
f 1246 1229 1239
f 1239 1229 1240
f 1229 1210 1240
f 1240 1210 1205
f 1210 1209 1205
f 1205 1209 1206
f 1209 1221 1206
f 1206 1221 1248
f 1221 1233 1248
f 1248 1233 1247
f 1233 1214 1247
f 1247 1214 1243
f 1214 1213 1243
f 1243 1213 1225
f 1213 1237 1225
f 1225 1237 1223
f 1237 1238 1223
f 1231 1223 1238
f 1218 1217 1246
f 1245 1246 1217
f 1244 1243 1226
f 1225 1226 1243
f 1207 1242 1205
f 1240 1205 1242
f 1216 1214 1234
f 1233 1234 1214
f 1242 1241 1240
f 1239 1240 1241
f 1238 1237 1236
f 1235 1236 1237
f 1222 1234 1221
f 1233 1221 1234
f 1224 1223 1232
f 1231 1232 1223
f 1230 1212 1229
f 1210 1229 1212
f 1228 1219 1227
f 1220 1227 1219
f 1226 1225 1224
f 1223 1224 1225
f 1222 1221 1211
f 1209 1211 1221
f 1220 1219 1218
f 1217 1218 1219
f 1216 1215 1214
f 1213 1214 1215
f 1212 1211 1210
f 1209 1210 1211
f 1208 1207 1206
f 1205 1206 1207
