# Kenney (www.kenney.nl), CC0 - converted for IngeTrazo
mtllib tree.mtl
v 1.55406 0.89724 6.35106
v 0.77703 0.44862 7.00000
v -0.00000 1.79447 6.35106
v -0.00000 0.89724 7.00000
v 1.82830 1.05557 4.12611
v 1.43961 0.83116 3.19905
v 1.82830 -1.05557 4.12611
v 1.43961 -0.83116 3.19905
v -0.00000 -1.66232 3.19905
v -0.00000 -2.11114 4.12611
v -1.82830 1.05557 4.12611
v -1.82830 -1.05557 4.12611
v -1.43961 0.83116 3.19905
v -1.43961 -0.83116 3.19905
v 0.77703 -0.44862 7.00000
v -0.00000 -0.89724 7.00000
v -0.77703 0.44862 7.00000
v -0.77703 -0.44862 7.00000
v -1.55406 0.89724 6.35106
v -1.55406 -0.89724 6.35106
v 0.71980 -0.41558 2.85654
v 0.71980 0.41558 2.85654
v -0.00000 -1.79447 6.35106
v -0.71981 -0.41558 2.85654
v -0.71981 0.41558 2.85654
v -0.00000 -0.83116 2.85654
v -0.00000 2.11114 4.12611
v 1.55406 -0.89724 6.35106
v -0.00000 0.83116 2.85654
v -0.00000 1.66232 3.19905
v 0.23009 -0.13284 2.85654
v -0.00000 -0.26569 2.85654
v -0.23009 -0.13284 2.85654
v -0.23009 0.13284 2.85654
v 0.23009 0.13284 2.85654
v -0.00000 0.26569 2.85654
v -0.00000 -0.39560 0.91336
v -0.34260 -0.19780 0.91336
v 0.34260 0.19780 0.91336
v 0.34260 -0.19780 0.91336
v 0.26073 0.55570 1.20497
v 0.34824 0.50518 1.20497
v 0.25781 0.55065 1.30584
v 0.34532 0.50012 1.30584
v 0.32631 -0.47785 1.80319
v 0.21525 -0.21528 1.75164
v 0.23881 -0.52837 1.80319
v 0.06694 -0.30091 1.75164
v 0.21030 -0.20671 1.92261
v 0.06199 -0.29234 1.92261
v -0.34260 0.19780 0.91336
v -0.00000 0.39560 0.91336
v 0.32339 -0.47279 1.90406
v 0.23588 -0.52331 1.90406
v 0.23718 0.24261 1.15343
v 0.23223 0.23404 1.32439
v 0.08887 0.32824 1.15343
v 0.08392 0.31967 1.32439
v 0.46847 0.27047 0.00000
v 0.46847 0.15146 0.00000
v 0.43697 0.15387 0.22856
v 0.43697 -0.15387 0.22856
v 0.46847 -0.27047 0.00000
v 0.46847 -0.15146 0.00000
v 0.10541 -0.48009 0.00000
v 0.06804 -0.42761 0.46533
v 0.41889 -0.92029 0.00000
v 0.58754 -0.82292 0.00000
v 0.33631 -0.27273 0.46533
v 0.36306 -0.33133 0.00000
v -0.36541 0.32998 0.00000
v -0.67249 0.97004 0.00000
v -0.35174 0.30149 0.22856
v -0.08523 0.45536 0.22856
v -0.50384 1.06741 0.00000
v -0.08523 -0.45536 0.22856
v -0.10306 -0.48144 0.00000
v -0.50384 -1.06741 0.00000
v -0.36541 -0.32998 0.00000
v -0.35174 -0.30149 0.22856
v -0.67249 -0.97004 0.00000
v -0.46847 -0.14876 0.00000
v -1.00644 -0.09737 0.00000
v -0.40434 -0.15489 0.46533
v -1.00644 0.09737 0.00000
v -0.46847 0.14876 0.00000
v -0.40434 0.15489 0.46533
v 0.36306 0.33133 0.00000
v 0.10541 0.48009 0.00000
v 0.41890 0.92029 0.00000
v 0.58754 0.82292 0.00000
v 1.17632 0.09737 0.00000
v 1.17632 -0.09737 0.00000
v -0.00000 0.54094 0.00000
v -0.00000 -0.54094 0.00000
v -0.10306 0.48144 0.00000
v -0.46847 -0.27047 0.00000
v -0.46847 0.27047 0.00000
v 0.33631 0.27273 0.46533
v 0.06804 0.42761 0.46533
usemtl m0
f 3 2 1
f 2 3 4
f 7 6 5
f 6 7 8
f 7 9 8
f 9 7 10
f 13 12 11
f 12 13 14
f 4 15 2
f 15 4 16
f 16 4 17
f 16 17 18
f 12 19 11
f 19 12 20
f 21 6 8
f 6 21 22
f 18 23 16
f 23 18 20
f 14 25 24
f 25 14 13
f 10 14 9
f 14 10 12
f 9 21 8
f 21 9 26
f 14 26 9
f 26 14 24
f 19 4 3
f 4 19 17
f 19 27 11
f 27 19 3
f 2 28 1
f 28 2 15
f 25 30 29
f 30 25 13
f 1 7 5
f 7 1 28
f 27 6 30
f 6 27 5
f 28 10 7
f 10 28 23
f 3 5 27
f 5 3 1
f 19 18 17
f 18 19 20
f 15 23 28
f 23 15 16
f 22 30 6
f 30 22 29
f 23 12 10
f 12 23 20
f 11 30 13
f 30 11 27
f 26 22 21
f 22 26 31
f 31 26 32
f 32 26 24
f 32 24 33
f 33 24 34
f 35 22 31
f 22 35 29
f 29 35 36
f 29 36 34
f 29 34 25
f 25 34 24
usemtl m1
f 32 38 37
f 38 32 33
f 35 40 39
f 40 35 31
f 43 42 41
f 42 43 44
f 47 46 45
f 46 47 48
f 40 46 37
f 46 40 31
f 46 31 49
f 49 31 50
f 48 37 46
f 37 48 32
f 32 48 50
f 32 50 31
f 38 34 51
f 34 38 33
f 34 52 51
f 52 34 36
f 53 47 45
f 47 53 54
f 48 54 50
f 54 48 47
f 49 54 53
f 54 49 50
f 44 55 42
f 55 44 56
f 57 43 41
f 43 57 58
f 53 46 49
f 46 53 45
f 43 56 44
f 56 43 58
f 52 57 39
f 57 52 36
f 57 36 58
f 58 36 56
f 55 39 57
f 39 55 35
f 35 55 56
f 35 56 36
f 55 41 42
f 41 55 57
f 39 60 59
f 60 39 61
f 40 61 39
f 61 40 62
f 63 62 40
f 62 63 64
f 67 66 65
f 69 67 68
f 67 69 66
f 68 70 69
f 73 72 71
f 75 73 74
f 73 75 72
f 78 77 76
f 81 80 79
f 80 78 76
f 78 80 81
f 84 83 82
f 87 86 85
f 70 64 63
f 64 70 60
f 60 70 59
f 59 70 88
f 89 88 70
f 90 88 89
f 88 90 91
f 92 64 60
f 64 92 93
f 70 65 89
f 70 67 65
f 67 70 68
f 89 65 94
f 94 65 95
f 94 95 77
f 94 77 96
f 96 77 78
f 96 78 79
f 79 78 81
f 71 96 79
f 97 71 79
f 71 97 98
f 98 97 82
f 98 82 86
f 83 86 82
f 86 83 85
f 96 71 75
f 75 71 72
f 61 93 92
f 93 61 62
f 90 99 91
f 99 90 100
f 100 90 89
f 99 88 91
f 98 73 71
f 73 98 51
f 73 51 74
f 52 74 51
f 94 74 52
f 74 94 96
f 86 51 98
f 51 86 87
f 87 38 51
f 38 87 84
f 84 97 38
f 97 84 82
f 95 76 77
f 76 95 37
f 38 76 37
f 38 80 76
f 97 80 38
f 80 97 79
f 52 89 94
f 89 52 100
f 39 100 52
f 39 99 100
f 59 99 39
f 99 59 88
f 40 70 63
f 70 40 69
f 69 40 66
f 37 66 40
f 95 66 37
f 66 95 65
f 62 64 93
f 85 84 87
f 84 85 83
f 61 92 60
f 74 96 75
